<svg width="632" height="145" viewBox="0 0 632 145" fill="none" xmlns="http://www.w3.org/2000/svg">
<path d="M225.286 112.89C217.515 112.89 210.929 111.962 205.531 110.106C200.132 108.25 195.37 105.465 191.246 101.753C188.769 99.4854 186.727 97.0804 185.105 94.5303C183.491 91.9881 182.216 89.4057 181.288 86.7909C180.36 84.1762 179.706 81.5453 179.327 78.8983C178.947 76.2513 178.762 73.685 178.762 71.2155C178.762 69.4965 178.931 67.4871 179.278 65.179C179.625 62.879 180.222 60.466 181.086 57.9562C181.941 55.4463 183.128 52.9042 184.645 50.3218C186.154 47.7393 188.051 45.3182 190.318 43.0505C191.827 41.5414 193.587 40.0968 195.58 38.7168C197.573 37.3449 199.841 36.1747 202.391 35.2063C204.933 34.246 207.806 33.4712 211.002 32.8821C214.198 32.301 217.789 32.0024 221.784 32.0024C223.85 32.0024 226.222 32.0912 228.902 32.2607C231.581 32.4302 234.196 32.761 236.738 33.2372C238.731 33.5842 240.571 33.8909 242.258 34.1653C243.945 34.4396 245.607 34.6495 247.261 34.7867C247.81 34.8593 248.173 34.9803 248.343 35.1498C248.512 35.3193 248.601 35.5775 248.601 35.9246C248.601 36.3361 248.553 36.9414 248.448 37.7323C248.343 38.5232 248.222 39.8467 248.085 41.7028C248.012 42.526 247.964 43.4702 247.931 44.5435C247.899 45.6088 247.883 46.6579 247.883 47.6909C247.883 48.7239 247.867 49.6519 247.834 50.4751C247.802 51.2983 247.786 51.9197 247.786 52.3312C247.713 53.7758 247.407 54.4941 246.858 54.4941C246.309 54.4941 246.035 53.7677 246.035 52.3312C246.035 50.3379 245.656 48.3769 244.897 46.4481C244.138 44.5274 243.073 42.9779 241.701 41.8077C239.91 40.226 237.166 38.854 233.445 37.6839C229.733 36.5137 225.609 35.9326 221.066 35.9326C217.628 35.9326 214.634 36.1586 212.092 36.6024C209.549 37.0544 207.33 37.6354 205.442 38.3537C203.553 39.0719 201.947 39.887 200.648 40.7747C199.341 41.6705 198.243 42.5663 197.347 43.454C193.562 47.1018 191.069 51.1772 189.866 55.6804C188.664 60.1835 188.059 65.0821 188.059 70.3762C188.059 75.3313 188.971 80.0766 190.794 84.612C192.618 89.1474 195.16 93.1583 198.429 96.6285C201.697 100.099 205.611 102.891 210.187 104.981C214.763 107.079 219.799 108.129 225.302 108.129C229.225 108.129 232.679 107.806 235.673 107.152C238.667 106.498 241.193 105.11 243.259 102.972C244.356 101.801 245.236 100.309 245.89 98.4846C246.543 96.6608 246.939 95.2727 247.076 94.3043C247.286 93.2713 247.625 92.7548 248.109 92.7548C248.383 92.7548 248.577 92.9081 248.674 93.2229C248.779 93.5296 248.827 93.8927 248.827 94.3043C248.827 94.5141 248.754 95.1436 248.617 96.2089C248.48 97.2741 248.311 98.4927 248.101 99.8727C247.891 101.253 247.649 102.641 247.374 104.053C247.1 105.465 246.826 106.619 246.551 107.507C246.204 108.467 245.914 109.105 245.672 109.412C245.43 109.718 244.832 110.082 243.864 110.493C242.831 110.905 241.596 111.268 240.152 111.574C238.707 111.881 237.158 112.123 235.511 112.301C233.865 112.47 232.162 112.607 230.403 112.712C228.652 112.817 226.949 112.866 225.294 112.866L225.286 112.89Z" fill="#80325D"/>
<path d="M260.771 72.355C260.771 69.6031 261.118 66.6817 261.804 63.5908C262.49 60.4999 263.555 57.4494 265 54.4634C266.445 51.4775 268.252 48.6206 270.415 45.901C272.578 43.1813 275.177 40.7925 278.203 38.7346C281.229 36.6687 284.667 35.0385 288.517 33.836C292.366 32.6336 296.667 32.0283 301.413 32.0283C307.191 32.0283 312.558 32.9241 317.505 34.7076C322.452 36.4992 326.737 39.0575 330.344 42.3904C333.952 45.7234 336.792 49.7827 338.85 54.5603C340.916 59.3378 341.941 64.7206 341.941 70.7007C341.941 76.6807 340.965 81.9263 339.004 87.0509C337.043 92.1754 334.275 96.6463 330.699 100.464C327.124 104.281 322.791 107.307 317.698 109.542C312.606 111.778 306.973 112.892 300.783 112.892C293.698 112.892 287.629 111.657 282.577 109.179C277.525 106.702 273.377 103.506 270.149 99.5839C266.913 95.6617 264.54 91.3119 263.031 86.5344C261.514 81.7568 260.763 77.0277 260.763 72.347L260.771 72.355ZM270.568 69.4659C270.568 75.4459 271.408 80.8852 273.094 85.7677C274.781 90.6502 277.121 94.8144 280.107 98.2523C283.101 101.69 286.588 104.337 290.574 106.193C294.561 108.049 298.895 108.978 303.576 108.978C305.916 108.978 308.7 108.55 311.928 107.686C315.156 106.831 318.271 105.128 321.265 102.578C324.259 100.036 326.802 96.4365 328.9 91.7961C330.998 87.1558 332.047 81.087 332.047 73.5898C332.047 67.3999 331.167 61.9364 329.416 57.1912C327.665 52.4459 325.341 48.4754 322.452 45.2796C319.563 42.0838 316.23 39.6546 312.445 38.0083C308.66 36.362 304.746 35.5308 300.686 35.5308C296.353 35.5308 292.35 36.2329 288.67 37.6452C284.99 39.0575 281.81 41.188 279.131 44.0448C276.452 46.9017 274.353 50.4364 272.836 54.6733C271.319 58.902 270.568 63.841 270.568 69.474V69.4659Z" fill="#80325D"/>
<path d="M374.141 112.888C371.736 112.888 369.364 112.686 367.023 112.291C364.683 111.888 362.448 111.185 360.317 110.185C359.558 109.846 359.115 109.458 358.977 109.023C358.84 108.579 358.768 107.675 358.768 106.295C358.768 103.68 358.832 101.412 358.977 99.4836C359.115 97.5629 359.219 96.1829 359.284 95.3598C359.349 94.2622 359.623 93.7135 360.107 93.7135C360.591 93.7135 360.825 94.0927 360.825 94.8513C360.825 95.3356 360.842 95.9005 360.874 96.5542C360.906 97.2078 360.995 97.91 361.132 98.6686C361.544 100.597 362.23 102.228 363.198 103.567C364.158 104.907 365.345 105.988 366.757 106.819C368.169 107.643 369.695 108.248 371.349 108.627C372.995 109.006 374.682 109.192 376.401 109.192C378.878 109.192 381.041 108.78 382.897 107.949C384.754 107.126 386.287 106.069 387.489 104.802C388.692 103.527 389.604 102.066 390.225 100.412C390.847 98.7573 391.153 97.111 391.153 95.4566C391.153 93.665 390.951 92.0268 390.532 90.5499C390.112 89.0731 389.45 87.6205 388.522 86.2082C387.594 84.7959 386.368 83.3513 384.858 81.8664C383.341 80.3896 381.485 78.719 379.29 76.8548L374.65 73.0296C371.898 70.7538 369.662 68.6555 367.943 66.7267C366.224 64.798 364.861 62.9176 363.868 61.0938C362.867 59.2699 362.181 57.5106 361.802 55.8239C361.423 54.1372 361.237 52.4022 361.237 50.6025C361.237 47.8506 361.737 45.3327 362.73 43.0649C363.723 40.7892 365.151 38.8281 367.007 37.1737C368.863 35.5193 371.099 34.2523 373.714 33.3484C376.328 32.4526 379.282 32.0088 382.583 32.0088C384.576 32.0088 386.351 32.0976 387.893 32.267C389.442 32.4365 390.871 32.6948 392.17 33.0418C393.13 33.2516 393.873 33.3888 394.389 33.4534C394.906 33.526 395.366 33.5583 395.786 33.5583C396.471 33.5583 396.819 33.8004 396.819 34.2765C396.819 34.5509 396.746 35.5677 396.617 37.319C396.48 39.0702 396.407 41.7011 396.407 45.2116C396.407 46.7934 396.165 47.5843 395.689 47.5843C395.342 47.5843 395.14 47.4632 395.067 47.2211C394.995 46.979 394.93 46.6562 394.857 46.2446C394.785 45.6232 394.631 44.7516 394.389 43.6137C394.147 42.4758 393.857 41.6365 393.51 41.0878C393.373 40.8134 393.058 40.3614 392.582 39.7481C392.097 39.1267 391.363 38.5134 390.362 37.892C389.362 37.2706 388.078 36.7379 386.497 36.2941C384.915 35.8502 382.954 35.6242 380.614 35.6242C377.038 35.6242 374.028 36.6734 371.591 38.7716C369.146 40.8699 367.927 43.8074 367.927 47.5923C367.927 49.0369 368.113 50.3927 368.492 51.6678C368.871 52.9429 369.541 54.2341 370.502 55.5334C371.462 56.8408 372.753 58.253 374.367 59.7622C375.981 61.2794 378.031 62.9983 380.509 64.919L383.398 67.1867C386.424 69.5917 388.918 71.8271 390.879 73.8931C392.84 75.959 394.389 77.9362 395.519 79.8247C396.657 81.7131 397.432 83.6096 397.843 85.498C398.255 87.3864 398.465 89.3636 398.465 91.4296C398.465 92.4626 398.344 93.6973 398.102 95.1419C397.86 96.5864 397.416 98.0956 396.762 99.6773C396.108 101.259 395.213 102.825 394.083 104.374C392.953 105.924 391.484 107.312 389.701 108.555C387.497 110.136 385.06 111.25 382.373 111.904C379.694 112.557 376.942 112.88 374.117 112.88L374.141 112.888Z" fill="#80325D"/>
<path d="M494.726 34.8055L501.634 98.2453C501.698 99.2056 501.843 100.239 502.045 101.336C502.255 102.434 502.546 103.499 502.925 104.532C503.304 105.565 503.837 106.509 504.523 107.373C505.209 108.236 506.105 108.833 507.202 109.18C508.711 109.665 510.075 109.939 511.278 110.004C512.48 110.076 513.36 110.108 513.908 110.108C514.457 110.108 514.732 110.278 514.732 110.625C514.732 110.972 514.522 111.206 514.11 111.351C513.699 111.488 513.182 111.561 512.561 111.561H509.47C507.953 111.561 506.306 111.545 504.515 111.513C502.723 111.48 500.988 111.424 499.301 111.359C497.615 111.287 496.291 111.222 495.331 111.15C494.161 111.012 493.386 110.875 493.007 110.738C492.627 110.601 492.442 110.391 492.442 110.117C492.442 109.705 492.684 109.463 493.16 109.398C493.434 109.334 493.604 108.93 493.676 108.212C493.741 107.494 493.709 106.646 493.572 105.686L488.616 52.1484H488.31L463.034 105.791C461.936 108.059 461.21 109.544 460.871 110.229C460.524 110.915 460.113 111.262 459.636 111.262C459.289 111.262 458.918 110.94 458.499 110.286C458.087 109.632 457.401 108.381 456.433 106.517C455.747 105.282 454.762 103.37 453.495 100.795C452.22 98.213 450.929 95.6225 449.629 93.0077C448.322 90.393 447.152 88.0768 446.119 86.0432C445.086 84.0175 444.505 82.8635 444.368 82.5891C444.23 82.3147 443.819 81.4512 443.133 80.0067C442.447 78.5621 441.616 76.827 440.655 74.7933C439.695 72.7677 438.678 70.5807 437.613 68.2403C436.548 65.9 435.531 63.7049 434.57 61.6389C433.61 59.5729 432.779 57.7733 432.093 56.2238C431.407 54.6743 430.955 53.6656 430.753 53.1814H430.342L426.218 101.046C426.145 101.869 426.113 102.732 426.113 103.628V106.307C426.113 107.066 426.371 107.752 426.888 108.373C427.404 108.995 428.042 109.374 428.8 109.511C429.696 109.721 430.487 109.858 431.173 109.923C431.859 109.995 432.375 110.028 432.722 110.028C433.271 110.028 433.545 110.197 433.545 110.544C433.545 111.166 432.924 111.472 431.689 111.472C430.729 111.472 429.728 111.456 428.695 111.424C427.662 111.392 426.686 111.351 425.758 111.319C424.83 111.287 424.039 111.246 423.385 111.214C422.731 111.182 422.304 111.166 422.094 111.166C421.884 111.166 421.44 111.182 420.754 111.214C420.068 111.246 419.294 111.279 418.43 111.319C417.567 111.351 416.695 111.384 415.799 111.424C414.903 111.456 414.112 111.472 413.427 111.472C412.256 111.472 411.675 111.166 411.675 110.544C411.675 110.197 412.014 110.028 412.708 110.028C413.12 110.028 413.548 110.012 414 109.979C414.443 109.947 415.049 109.858 415.807 109.721C417.526 109.374 418.591 108.365 419.003 106.679C419.415 104.992 419.721 103.152 419.931 101.159L427.356 33.9017C427.493 32.6669 427.872 32.0455 428.494 32.0455C429.042 32.0455 429.559 32.562 430.043 33.595L461.606 98.4793L491.933 33.6999C492.418 32.6024 492.926 32.0536 493.483 32.0536C494.104 32.0536 494.516 32.9817 494.717 34.8378L494.726 34.8055Z" fill="#80325D"/>
<path d="M541.871 63.3698V81.5277C541.871 86.4828 541.887 90.8972 541.92 94.787C541.952 98.6769 542.105 101.719 542.388 103.914C542.525 105.432 542.832 106.699 543.316 107.732C543.8 108.765 544.825 109.386 546.407 109.588C547.165 109.725 548.005 109.83 548.933 109.894C549.861 109.967 550.563 109.999 551.047 109.999C551.596 109.999 551.87 110.209 551.87 110.621C551.87 111.17 551.321 111.444 550.224 111.444C548.779 111.444 547.335 111.428 545.89 111.395C544.446 111.363 543.122 111.323 541.92 111.291C540.717 111.258 539.717 111.218 538.926 111.186C538.135 111.153 537.667 111.137 537.53 111.137C537.392 111.137 536.924 111.153 536.133 111.186C535.342 111.218 534.431 111.25 533.398 111.291C532.365 111.323 531.299 111.355 530.202 111.395C529.104 111.428 528.176 111.444 527.418 111.444C526.32 111.444 525.771 111.17 525.771 110.621C525.771 110.209 526.046 109.999 526.594 109.999C527.071 109.999 527.587 109.967 528.144 109.894C528.693 109.83 529.209 109.725 529.693 109.588C530.726 109.378 531.428 108.765 531.808 107.732C532.187 106.699 532.478 105.432 532.687 103.914C532.962 101.711 533.115 98.6688 533.155 94.787C533.188 90.9053 533.204 86.4828 533.204 81.5277V47.4312C533.204 45.8817 533.188 44.647 533.155 43.7189C533.123 42.7908 533.067 41.9112 533.002 41.088C532.792 37.7227 531.622 35.794 529.492 35.3098C528.943 35.1726 528.354 35.0677 527.74 35.0031C527.119 34.9385 526.643 34.8982 526.296 34.8982C525.747 34.8982 525.473 34.6884 525.473 34.2768C525.473 33.728 526.021 33.4536 527.119 33.4536C527.942 33.4536 528.943 33.4698 530.113 33.502C531.283 33.5343 532.381 33.5747 533.414 33.6069C534.447 33.6392 535.359 33.6796 536.149 33.7119C536.94 33.7441 537.4 33.7603 537.546 33.7603C537.691 33.7603 538.151 33.7441 538.942 33.7119C539.733 33.6796 540.645 33.6473 541.678 33.6069C542.711 33.5747 543.776 33.5424 544.873 33.502C545.971 33.4698 546.899 33.4536 547.658 33.4536C548.755 33.4536 549.304 33.728 549.304 34.2768C549.304 34.6884 549.03 34.8982 548.481 34.8982C548.134 34.8982 547.771 34.9143 547.399 34.9466C547.02 34.9789 546.52 35.0677 545.906 35.2048C544.526 35.4792 543.582 36.0845 543.074 37.0126C542.557 37.9406 542.234 39.2964 542.097 41.088C542.033 41.9112 541.976 42.7908 541.944 43.7189C541.912 44.647 541.895 45.8817 541.895 47.4312V63.3698H541.871Z" fill="#80325D"/>
<path d="M573.023 101.132L591.697 71.6276L575.194 43.8823C574.024 41.889 572.837 40.1701 571.635 38.7255C570.432 37.2809 568.931 36.2479 567.148 35.6346C566.325 35.3602 565.477 35.1665 564.622 35.0697C563.758 34.9648 563.161 34.9164 562.814 34.9164C562.193 34.9164 561.886 34.6743 561.886 34.19C561.886 33.7058 562.467 33.4718 563.637 33.4718C564.323 33.4718 565.308 33.4879 566.575 33.5202C567.85 33.5525 569.133 33.5929 570.44 33.6251C571.748 33.6574 572.902 33.6978 573.894 33.73C574.887 33.7623 575.492 33.7785 575.702 33.7785C575.912 33.7785 576.372 33.7623 577.098 33.73C577.817 33.6978 578.648 33.6655 579.576 33.6251C580.504 33.5929 581.489 33.5606 582.513 33.5202C583.546 33.4879 584.507 33.4718 585.403 33.4718C586.161 33.4718 586.637 33.5202 586.847 33.6251C587.057 33.73 587.154 33.9157 587.154 34.19C587.154 34.6743 586.847 34.9164 586.226 34.9164C585.879 34.9164 585.435 34.9325 584.886 34.9648C584.337 34.9971 583.853 35.0858 583.441 35.223C582.618 35.4974 582.207 36.0865 582.207 36.9743C582.207 38.0072 582.554 39.1371 583.24 40.3799C585.443 44.5037 587.638 48.5308 589.841 52.4529C592.044 56.375 594.481 60.5715 597.169 65.0343C597.653 64.2757 598.355 63.2104 599.283 61.8385C600.211 60.4666 601.204 58.9332 602.277 57.2466C603.343 55.5599 604.424 53.8248 605.53 52.0332C606.627 50.2497 607.66 48.5792 608.62 47.0297C609.581 45.4802 610.404 44.1406 611.098 43.0108C611.784 41.8729 612.196 41.1385 612.333 40.7915C612.68 40.0329 612.938 39.3792 613.107 38.8304C613.277 38.2816 613.366 37.6925 613.366 37.0792C613.366 36.1834 612.785 35.5701 611.615 35.223C611.066 35.0858 610.493 34.9971 609.912 34.9648C609.331 34.9325 608.863 34.9164 608.516 34.9164C607.894 34.9164 607.588 34.6743 607.588 34.19C607.588 33.7058 608.169 33.4718 609.339 33.4718C611.332 33.4718 613.237 33.5202 615.061 33.6251C616.884 33.73 618.03 33.7785 618.515 33.7785C618.999 33.7785 620.112 33.73 621.864 33.6251C623.615 33.5202 625.39 33.4718 627.174 33.4718C628.271 33.4718 628.82 33.7139 628.82 34.19C628.82 34.6662 628.441 34.9164 627.682 34.9164C627.335 34.9164 626.819 34.9486 626.133 35.0213C625.447 35.0939 624.825 35.2311 624.277 35.4329C622.759 35.9171 621.436 36.8774 620.306 38.322C619.168 39.7665 617.845 41.5904 616.336 43.7855L599.727 68.7466C600.066 69.2954 600.792 70.4978 601.89 72.354C602.988 74.2101 604.279 76.3971 605.756 78.907C607.232 81.4168 608.814 84.0799 610.501 86.9045C612.188 89.7291 613.785 92.3922 615.295 94.9021C616.804 97.4119 618.135 99.5586 619.265 101.35C620.403 103.142 621.137 104.272 621.484 104.756C622.308 105.853 623.147 106.781 624.01 107.54C624.866 108.299 626.052 108.92 627.569 109.396C628.328 109.606 629.03 109.759 629.684 109.864C630.337 109.969 630.838 110.018 631.177 110.018C631.725 110.018 632 110.227 632 110.639C632 111.188 631.516 111.462 630.555 111.462H621.888C619.273 111.462 616.658 111.389 614.052 111.252C612.672 111.18 611.8 111.099 611.421 110.994C611.042 110.889 610.856 110.703 610.856 110.429C610.856 110.018 611.066 109.743 611.477 109.606C611.752 109.469 612.026 109.162 612.3 108.678C612.575 108.194 612.47 107.54 611.994 106.717C609.169 101.625 606.288 96.5403 603.326 91.448C600.365 86.3557 597.346 81.1989 594.247 75.9775L578.156 103.311C577.671 104.134 577.332 104.966 577.123 105.789C576.913 106.612 576.816 107.306 576.816 107.855C576.816 108.888 577.365 109.541 578.462 109.816C578.801 109.888 579.148 109.937 579.495 109.969C579.834 110.001 580.149 110.018 580.423 110.018C580.972 110.018 581.246 110.26 581.246 110.744C581.246 111.228 580.835 111.462 580.012 111.462C579.39 111.462 578.567 111.446 577.534 111.414C576.501 111.381 575.468 111.341 574.443 111.309C573.41 111.276 572.482 111.236 571.659 111.204C570.836 111.172 570.319 111.155 570.11 111.155C569.9 111.155 569.456 111.172 568.77 111.204C568.084 111.236 567.277 111.268 566.349 111.309C565.421 111.341 564.46 111.373 563.46 111.414C562.459 111.446 561.555 111.462 560.724 111.462C560.038 111.462 559.691 111.22 559.691 110.744C559.691 110.268 559.965 110.018 560.514 110.018C560.926 110.018 561.491 109.985 562.217 109.913C562.943 109.848 563.678 109.703 564.436 109.501C566.018 109.089 567.43 108.25 568.665 106.975C569.9 105.7 571.344 103.763 572.999 101.148L573.023 101.132Z" fill="#80325D"/>
<path d="M100.085 89.5932L111.981 110.188C112.045 110.293 112.134 110.382 112.239 110.447L126.41 118.63C126.709 118.807 127.096 118.735 127.314 118.468C132.415 112.319 136.506 105.306 139.339 97.6795C139.46 97.3567 139.323 96.9855 139.024 96.816L124.837 88.6248C124.732 88.5602 124.603 88.528 124.482 88.528H100.699C100.15 88.528 99.8111 89.1171 100.085 89.5932Z" fill="#F2A4A3"/>
<path d="M87.8828 101.342V125.125C87.8828 125.246 87.9151 125.375 87.9797 125.48L96.1709 139.667C96.3484 139.966 96.7116 140.103 97.0344 139.982C104.661 137.149 111.674 133.058 117.823 127.957C118.09 127.739 118.154 127.352 117.985 127.053L109.801 112.882C109.737 112.777 109.648 112.688 109.543 112.624L88.9481 100.728C88.4719 100.454 87.8828 100.793 87.8828 101.342Z" fill="#F2A4A3"/>
<path d="M55.1501 100.728L34.5469 112.624C34.442 112.688 34.3532 112.777 34.2887 112.882L26.1055 127.053C25.9279 127.352 26.0006 127.739 26.2669 127.957C32.4164 133.058 39.4294 137.149 47.0557 139.982C47.3785 140.103 47.7497 139.966 47.9192 139.667L56.1104 125.48C56.175 125.375 56.2073 125.246 56.2073 125.125V101.342C56.2073 100.793 55.6182 100.454 55.142 100.728H55.1501Z" fill="#F2A4A3"/>
<path d="M71.4347 105.42L59.5392 126.015C59.4747 126.12 59.4424 126.249 59.4424 126.37V142.744C59.4424 143.091 59.6926 143.39 60.0315 143.446C63.9375 144.108 67.9484 144.447 72.0399 144.447C76.1315 144.447 80.1424 144.1 84.0484 143.446C84.3873 143.39 84.6375 143.091 84.6375 142.744V126.37C84.6375 126.249 84.6052 126.12 84.5407 126.015L72.6452 105.412C72.3708 104.936 71.6929 104.936 71.4185 105.412L71.4347 105.42Z" fill="#F2A4A3"/>
<path d="M104.774 73.3081L125.369 85.2035C125.474 85.2681 125.603 85.3003 125.724 85.3003H142.099C142.446 85.3003 142.744 85.0502 142.801 84.7112C143.463 80.8053 143.802 76.7944 143.802 72.7028C143.802 68.6112 143.455 64.6003 142.801 60.6944C142.744 60.3554 142.446 60.1052 142.099 60.1052H125.724C125.603 60.1052 125.474 60.1375 125.369 60.2021L104.774 72.0975C104.298 72.3719 104.298 73.0498 104.774 73.3242V73.3081Z" fill="#F2A4A3"/>
<path d="M72.6633 39.9693L84.5587 19.3661C84.6233 19.2612 84.6556 19.1321 84.6556 19.0111V2.63665C84.6556 2.28963 84.4054 1.99103 84.0664 1.93454C80.1605 1.27279 76.1496 0.933838 72.058 0.933838C67.9664 0.933838 63.9555 1.28086 60.0496 1.93454C59.7106 1.99103 59.4604 2.28963 59.4604 2.63665V19.0111C59.4604 19.1321 59.4927 19.2612 59.5573 19.3661L71.4527 39.9613C71.7271 40.4374 72.405 40.4374 72.6794 39.9613L72.6633 39.9693Z" fill="#F2A4A3"/>
<path d="M88.9481 44.6586L109.543 32.7632C109.648 32.6986 109.737 32.6098 109.801 32.5049L117.985 18.3337C118.162 18.0351 118.09 17.6477 117.823 17.4298C111.674 12.3294 104.661 8.23786 97.0344 5.40522C96.7116 5.28417 96.3404 5.42136 96.1709 5.71996L87.9797 19.9074C87.9151 20.0123 87.8828 20.1414 87.8828 20.2624V44.0453C87.8828 44.5941 88.4719 44.933 88.9481 44.6586Z" fill="#F2A4A3"/>
<path d="M100.699 56.8591H124.482C124.603 56.8591 124.732 56.8268 124.837 56.7623L139.024 48.571C139.323 48.3935 139.46 48.0303 139.339 47.7075C136.506 40.0812 132.415 33.0682 127.314 26.9187C127.096 26.6524 126.709 26.5879 126.41 26.7573L112.239 34.9405C112.134 35.0051 112.045 35.0938 111.981 35.1987L100.085 55.7939C99.8111 56.27 100.15 56.8591 100.699 56.8591Z" fill="#F2A4A3"/>
<path d="M56.2164 44.0453V20.2624C56.2164 20.1414 56.1841 20.0123 56.1196 19.9074L47.9283 5.71996C47.7508 5.42136 47.3876 5.28417 47.0648 5.40522C39.4385 8.23786 32.4255 12.3294 26.276 17.4298C26.0097 17.6477 25.9452 18.0351 26.1146 18.3337L34.2978 32.5049C34.3624 32.6098 34.4511 32.6986 34.556 32.7632L55.1592 44.6586C55.6354 44.933 56.2245 44.5941 56.2245 44.0453H56.2164Z" fill="#F2A4A3"/>
<path d="M43.4008 88.5253H19.6179C19.4969 88.5253 19.3677 88.5576 19.2628 88.6221L5.07543 96.8134C4.77683 96.9909 4.63964 97.3541 4.76069 97.6769C7.59333 105.303 11.6849 112.316 16.7853 118.466C17.0032 118.732 17.3905 118.797 17.6891 118.627L31.8604 110.444C31.9653 110.379 32.0541 110.291 32.1186 110.186L44.0141 89.5825C44.2885 89.1063 43.9495 88.5172 43.4008 88.5172V88.5253Z" fill="#F2A4A3"/>
<path d="M39.3251 72.083L18.7299 60.1875C18.625 60.123 18.4959 60.0907 18.3748 60.0907H1.99236C1.64534 60.0907 1.34675 60.3409 1.29025 60.6798C0.628499 64.5858 0.289551 68.5967 0.289551 72.6883C0.289551 76.7798 0.636569 80.7907 1.29025 84.6967C1.34675 85.0356 1.64534 85.2858 1.99236 85.2858H18.3668C18.4878 85.2858 18.6169 85.2535 18.7219 85.189L39.317 73.2935C39.7931 73.0191 39.7931 72.3412 39.317 72.0669L39.3251 72.083Z" fill="#F2A4A3"/>
<path d="M44.0141 55.7946L32.1186 35.1914C32.0541 35.0865 31.9653 34.9978 31.8604 34.9332L17.6891 26.75C17.3905 26.5725 17.0032 26.6451 16.7853 26.9114C11.6849 33.0609 7.59333 40.0739 4.76069 47.7002C4.63964 48.023 4.77683 48.3943 5.07543 48.5637L19.2628 56.755C19.3677 56.8195 19.4969 56.8518 19.6179 56.8518H43.4008C43.9495 56.8518 44.2885 56.2627 44.0141 55.7866V55.7946Z" fill="#F2A4A3"/>
<path d="M50.2192 85.3021H56.2154V81.8399L53.2213 80.1049L50.2192 85.3021Z" fill="#A8001C"/>
<path d="M53.7699 72.6949L52.0348 69.6927L46.8457 72.6949L52.0348 75.697L53.7699 72.6949Z" fill="#A8001C"/>
<path d="M92.0622 75.697L97.2514 72.6949L92.0622 69.6927L90.3271 72.6949L92.0622 75.697Z" fill="#A8001C"/>
<path d="M81.1916 56.862H84.6537V50.8658L79.4565 53.868L81.1916 56.862Z" fill="#A8001C"/>
<path d="M53.2213 65.2879L56.2154 63.5528V60.0907H50.2192L53.2213 65.2879Z" fill="#A8001C"/>
<path d="M90.8769 80.1049L87.8828 81.8399V85.3021H93.879L90.8769 80.1049Z" fill="#A8001C"/>
<path d="M93.879 60.0907H87.8828V63.5528L90.8769 65.2879L93.879 60.0907Z" fill="#A8001C"/>
<path d="M64.6396 53.868L59.4424 50.8658V56.862H62.9045L64.6396 53.868Z" fill="#A8001C"/>
<path d="M72.0485 54.4149L75.0506 52.6799L72.0485 47.4907L69.0464 52.6799L72.0485 54.4149Z" fill="#A8001C"/>
<path d="M72.0485 90.9729L69.0464 92.708L72.0485 97.8971L75.0506 92.708L72.0485 90.9729Z" fill="#A8001C"/>
<path d="M79.458 91.5219L84.6552 94.524V88.5278H81.1931L79.458 91.5219Z" fill="#A8001C"/>
<path d="M62.906 88.5278H59.4438V94.524L64.641 91.5219L62.906 88.5278Z" fill="#A8001C"/>
<path d="M89.2629 77.3081L88.4801 75.9362V69.4478L89.2629 68.0758L87.899 67.293L84.6548 61.6681V60.0864H83.073L77.4481 56.8421L76.6653 55.4783L75.2934 56.2611H68.8049L67.433 55.4783L66.6502 56.8421L61.0253 60.0864H59.4435V61.6681L56.1993 67.293L54.8354 68.0758L55.6263 69.4478V75.9362L54.8354 77.3081L56.1993 78.0909L59.4435 83.7159V85.2976H61.0253L66.6502 88.5418L67.433 89.9057L68.8049 89.1148H75.2934L76.6653 89.9057L77.4481 88.5418L83.073 85.2976H84.6548V83.7159L87.899 78.0909L89.2629 77.3081Z" fill="#80325D"/>
<path d="M37.6211 107.118L56.2148 96.3848V88.5244H48.3544L37.6211 107.118Z" fill="#A53B49"/>
<path d="M50.4211 66.8985L46.4909 60.0873H25.0161L43.6179 70.8287L50.4211 66.8985Z" fill="#A53B49"/>
<path d="M50.4211 78.4863L43.6179 74.5562L25.0161 85.2976H46.4909L50.4211 78.4863Z" fill="#A53B49"/>
<path d="M77.8438 51.0632L84.655 47.133V25.6582L73.9136 44.26L77.8438 51.0632Z" fill="#A53B49"/>
<path d="M106.476 38.2626L87.8818 48.9959V56.8563H95.7422L106.476 38.2626Z" fill="#A53B49"/>
<path d="M93.6792 78.4863L97.6094 85.2976H119.084L100.482 74.5562L93.6792 78.4863Z" fill="#A53B49"/>
<path d="M93.6792 66.8985L100.482 70.8287L119.084 60.0873H97.6094L93.6792 66.8985Z" fill="#A53B49"/>
<path d="M87.8818 88.5244V96.3848L106.476 107.118L95.7422 88.5244H87.8818Z" fill="#A53B49"/>
<path d="M70.1843 44.26L59.4429 25.6582V47.133L66.2541 51.0632L70.1843 44.26Z" fill="#A53B49"/>
<path d="M48.3544 56.8563H56.2148V48.9959L37.6211 38.2626L48.3544 56.8563Z" fill="#A53B49"/>
<path d="M73.9136 101.124L84.655 119.726V98.2511L77.8438 94.3209L73.9136 101.124Z" fill="#A53B49"/>
<path d="M59.4429 98.2511V119.726L70.1843 101.124L66.2541 94.3209L59.4429 98.2511Z" fill="#A53B49"/>
</svg>
