<svg width="693" height="627" viewBox="0 0 693 627" fill="none" xmlns="http://www.w3.org/2000/svg">
<path d="M70.3981 187.257C70.9372 187.226 71.4918 187.195 72.0309 187.195H223.78C230.928 184.607 236.042 177.783 236.042 169.742C236.042 159.482 227.724 151.164 217.464 151.164C213.244 151.164 209.362 152.597 206.235 154.969C204.109 141.49 192.448 131.184 178.383 131.184C174.163 131.184 170.173 132.109 166.584 133.772C161.546 116.103 145.279 103.148 125.993 103.148C106.706 103.148 90.7166 115.872 85.5407 133.31C82.2287 131.939 78.5932 131.184 74.7729 131.184C59.199 131.184 46.5674 143.816 46.5674 159.375C46.5674 173.454 56.8884 185.131 70.3981 187.241V187.257Z" fill="#D9F0F9"/>
<path d="M244.916 54.9477C244.916 54.9477 268.623 33.6279 296.397 33.5817C297.075 30.2852 298.677 27.1581 301.234 24.6009C306.087 19.7485 313.034 18.3005 319.15 20.226C322.323 8.58028 332.983 0 345.645 0C358.308 0 368.49 8.19517 371.925 19.4404C376.839 19.1323 381.877 20.8268 385.635 24.5855C392.583 31.5329 392.583 42.7782 385.635 49.7256C382.446 52.9143 378.364 54.6088 374.205 54.8707V54.9169H345.661H244.931L244.916 54.9477Z" fill="#D9F0F9"/>
<path d="M567.577 134.019C567.577 134.019 537.708 107.138 502.694 107.092C501.846 102.948 499.813 98.9891 496.609 95.785C490.493 89.6694 481.744 87.8517 474.041 90.2702C470.036 75.5897 456.604 64.7912 440.645 64.7912C424.686 64.7912 411.854 75.1122 407.525 89.2997C401.317 88.8992 394.986 91.0558 390.257 95.785C381.507 104.535 381.507 118.722 390.257 127.457C394.262 131.462 399.422 133.618 404.675 133.942V134.003H440.645H567.593L567.577 134.019Z" fill="#D9F0F9"/>
<path d="M553.913 68.1494C554.252 68.134 554.575 68.1186 554.914 68.1186H647.464C651.823 66.5473 654.95 62.3727 654.95 57.4741C654.95 51.2199 649.882 46.1518 643.628 46.1518C641.056 46.1518 638.683 47.0299 636.773 48.4779C635.479 40.2673 628.362 33.9669 619.782 33.9669C617.21 33.9669 614.776 34.5369 612.588 35.5536C609.507 24.7704 599.602 16.8834 587.833 16.8834C576.064 16.8834 566.329 24.6472 563.155 35.2763C561.137 34.4444 558.919 33.9823 556.593 33.9823C547.088 33.9823 539.386 41.6845 539.386 51.1737C539.386 59.7694 545.687 66.8862 553.913 68.1648V68.1494Z" fill="#D9F0F9"/>
<path opacity="0.47" d="M344.012 576.096C154.014 576.096 0 587.295 0 601.113C0 614.93 154.014 626.129 344.012 626.129C534.011 626.129 688.025 614.93 688.025 601.113C688.025 587.295 534.011 576.096 344.012 576.096Z" fill="#E9E0E6"/>
<path d="M588.681 476.506L591.947 463.32L596.445 476.26C619.244 474.688 631.028 467.248 646.125 458.406L644.338 442.539L655.675 452.968C665.257 447.761 676.795 442.401 692.862 437.656C679.26 427.874 670.14 419.001 662.823 410.929L648.666 417.029L655.598 402.642C644.276 389.301 635.603 378.395 614.607 369.383L606.089 380.105L607.352 366.58C598.201 363.468 589.898 362.297 582.35 362.513L582.042 376.023L571.444 363.869C558.443 366.795 548.276 373.959 540.666 381.738L546.104 394.662L534.889 388.316C526.494 398.914 522.643 408.742 522.643 408.742C522.643 408.742 523.028 419.294 527.464 432.064L540.157 429.784L530.761 440.182C535.367 450.041 542.607 460.162 553.914 467.217L567.932 459.238L563.757 472.085C570.797 474.781 579.038 476.414 588.697 476.506H588.681Z" fill="#8BCCB1"/>
<path d="M682.402 433.173C618.689 422.344 554.992 411.53 491.279 400.701C488.491 400.223 487.736 404.567 490.54 405.045C554.252 415.874 617.95 426.688 681.663 437.517C684.451 437.995 685.206 433.651 682.402 433.173Z" fill="#D1EAE0"/>
<path d="M632.846 406.231C623.711 411.807 614.037 416.259 603.87 419.602C601.174 420.495 602.73 424.608 605.426 423.73C615.947 420.264 625.945 415.597 635.403 409.82C637.822 408.341 635.264 404.752 632.861 406.231H632.846Z" fill="#D1EAE0"/>
<path d="M618.304 454.663C609.616 441.938 600.25 429.707 590.237 418C588.404 415.859 584.8 418.385 586.648 420.557C596.661 432.264 606.027 444.48 614.715 457.22C616.317 459.561 619.906 457.019 618.304 454.678V454.663Z" fill="#D1EAE0"/>
<path d="M587.079 396.049C576.681 400.978 566.283 405.907 555.9 410.837C553.359 412.038 554.884 416.182 557.456 414.965C567.854 410.036 578.252 405.106 588.635 400.177C591.177 398.975 589.652 394.832 587.079 396.049Z" fill="#D1EAE0"/>
<path d="M148.946 186.286L137.716 195.652L142.045 181.557C121.264 168.401 106.306 167.354 87.5745 165.428L79.0251 180.34L75.8209 164.073C64.206 162.486 50.7733 159.806 33.813 153.69C39.3894 170.835 41.6539 184.345 42.8708 196.006L59.0301 199.719L43.8567 207.791C45.1969 226.569 45.7668 241.557 58.2445 262.738L72.4628 258.856L62.758 269.778C68.7195 278.297 75.1739 284.613 81.8595 289.219L90.7325 277.696L92.1805 294.995C105.32 300.741 118.707 300.988 130.26 299.093L133.773 284.412L139.472 297.06C153.506 293.208 163.103 287.139 163.103 287.139C163.103 287.139 169.48 277.742 173.778 263.832L161.316 257.732L176.089 254.697C178.353 243.206 178.538 229.819 173.208 216.51L155.97 214.507L167.77 206.004C163.38 199.18 157.264 192.525 148.946 186.301V186.286Z" fill="#8DBDCB"/>
<path d="M40.0364 164.227C88.4218 214.168 136.807 264.125 185.193 314.066C187.318 316.254 190.723 312.957 188.597 310.77C140.212 260.828 91.8262 210.872 43.4408 160.93C41.315 158.743 37.9106 162.04 40.0364 164.227Z" fill="#D1EAE0"/>
<path d="M65.9008 219.159C77.3771 220.13 88.607 222.44 99.5595 225.999C102.456 226.938 103.734 222.379 100.838 221.439C89.5004 217.757 77.8547 215.431 65.9778 214.43C62.9278 214.168 62.8815 218.913 65.9008 219.175V219.159Z" fill="#D1EAE0"/>
<path d="M109.341 186.394C108.771 202.969 109.11 219.529 110.358 236.073C110.589 239.093 115.334 239.2 115.103 236.15C113.855 219.621 113.516 203.046 114.086 186.471C114.194 183.421 109.449 183.344 109.341 186.394Z" fill="#D1EAE0"/>
<path d="M99.1127 257.131C111.267 259.473 123.421 261.814 135.575 264.156C138.548 264.726 139.857 260.166 136.854 259.596C124.699 257.254 112.545 254.913 100.391 252.571C97.4182 252.002 96.1088 256.561 99.1127 257.131Z" fill="#D1EAE0"/>
<path d="M70.214 246.687L70.0446 255.96L65.0844 248.043C50.1574 252.541 43.4565 259.272 34.753 267.452L38.3576 277.727L29.2382 272.505C23.6618 277.419 16.7914 282.733 6.82471 288.325C17.3614 292.762 24.7709 297.291 30.8557 301.542L39.3435 295.334L36.9096 305.948C46.4604 313.096 53.8853 319.042 69.2128 321.845L73.2487 313.419L74.4503 322.6C80.9972 323.278 86.7122 322.8 91.6879 321.506L89.8393 312.479L98.7277 318.965C106.938 315.052 112.607 308.736 116.489 302.42L110.913 294.657L119.339 297.183C123.313 288.864 124.392 281.748 124.392 281.748C124.392 281.748 122.528 274.785 117.66 266.959L109.572 270.41L114.24 262.061C109.68 256.207 103.334 250.569 94.7379 247.596L86.6198 255.021L87.4362 245.84C82.3373 245.116 76.6223 245.285 70.1832 246.687H70.214Z" fill="#A3D7C3"/>
<path d="M14.4493 289.727C58.4598 287.262 102.47 284.798 146.481 282.333C148.406 282.225 148.252 279.221 146.311 279.329C102.301 281.794 58.2904 284.258 14.2799 286.723C12.3543 286.831 12.5084 289.835 14.4493 289.727Z" fill="#D1EAE0"/>
<path d="M51.5134 300.14C56.7355 295.042 62.4968 290.62 68.751 286.846C70.4146 285.845 68.751 283.35 67.0873 284.335C60.6174 288.233 54.6713 292.854 49.2643 298.122C47.8779 299.478 50.127 301.465 51.498 300.125L51.5134 300.14Z" fill="#D1EAE0"/>
<path d="M53.8388 265.712C61.5411 272.859 69.6284 279.576 78.07 285.83C79.6105 286.97 81.6285 284.751 80.0726 283.596C71.631 277.326 63.559 270.626 55.8414 263.478C54.4242 262.169 52.4216 264.402 53.8388 265.712Z" fill="#D1EAE0"/>
<path d="M83.4925 299.971C89.6543 295.119 95.8161 290.266 101.993 285.414C103.503 284.228 101.855 281.701 100.33 282.903C94.1678 287.755 87.9906 292.608 81.8288 297.46C80.3192 298.646 81.9675 301.173 83.4925 299.971Z" fill="#D1EAE0"/>
<path d="M612.527 382.277L605.765 373.851L616.117 377.24C626.114 362.066 627.1 351.037 628.779 337.219L617.888 330.703L629.95 328.562C631.275 319.997 633.447 310.123 638.207 297.676C625.467 301.558 615.454 303.052 606.828 303.776L603.87 315.668L598.124 304.346C584.229 305.07 573.154 305.301 557.333 314.22L560.014 324.772L552.08 317.455C545.703 321.737 540.958 326.42 537.461 331.304L545.857 338.02L533.056 338.852C528.635 348.48 528.265 358.369 529.513 366.919L540.296 369.707L530.868 373.743C533.518 384.156 537.877 391.335 537.877 391.335C537.877 391.335 544.732 396.172 554.946 399.53L559.613 390.411L561.662 401.363C570.119 403.196 580.009 403.504 589.914 399.761L591.624 387.052L597.739 395.879C602.838 392.721 607.844 388.3 612.558 382.246L612.527 382.277Z" fill="#A3D7C3"/>
<path d="M630.32 302.127C592.764 337.188 555.208 372.233 517.652 407.294C516.003 408.834 518.391 411.391 520.039 409.851C557.595 374.79 595.151 339.745 632.707 304.685C634.356 303.144 631.968 300.587 630.32 302.127Z" fill="#D1EAE0"/>
<path d="M589.375 320.474C588.497 328.947 586.648 337.204 583.86 345.245C583.121 347.371 586.479 348.387 587.218 346.246C590.099 337.928 591.978 329.363 592.872 320.598C593.103 318.349 589.606 318.241 589.375 320.474Z" fill="#D1EAE0"/>
<path d="M612.99 353.024C600.759 352.377 588.512 352.408 576.281 353.101C574.048 353.224 573.909 356.721 576.158 356.598C588.389 355.905 600.636 355.889 612.867 356.521C615.116 356.644 615.239 353.132 612.99 353.024Z" fill="#D1EAE0"/>
<path d="M560.876 344.49C558.982 353.44 557.087 362.39 555.192 371.324C554.73 373.512 558.073 374.544 558.55 372.326C560.445 363.376 562.34 354.426 564.235 345.491C564.697 343.304 561.354 342.272 560.876 344.49Z" fill="#D1EAE0"/>
<path d="M207.529 92.8889L208.361 96.74C208.545 97.618 208.977 98.4345 209.593 99.0969L209.886 99.4204C210.764 100.375 211.981 100.961 213.275 101.053H213.552C214.122 101.115 214.646 100.761 214.831 100.206C215.046 99.5436 214.661 98.835 213.999 98.6347L213.752 98.5577C213.46 98.4653 213.198 98.2804 213.044 98.0185L212.243 96.971C211.919 96.5397 211.719 96.0468 211.688 95.5076V95.292C212.104 95.1533 212.581 95.292 212.874 95.6309L213.706 97.2637L214.522 97.4486C214.938 97.1559 214.954 96.6476 214.938 96.1392C214.938 95.8003 214.861 95.446 214.861 95.0917V93.0121L213.059 89.731L207.529 92.8889Z" fill="#E5BA86"/>
<path d="M247.596 94.7065C247.596 94.7065 249.783 111.852 245.377 127.395C240.972 142.922 232.854 166.399 232.854 166.399L220.792 164.211L228.787 92.7964L247.596 94.7065Z" fill="#2B8099"/>
<path d="M238.323 91.5795L250.677 119.708C252.741 124.406 253.943 129.444 254.22 134.573L255.791 166.045C255.791 166.045 247.365 166.06 242.836 166.06L240.372 147.451C239.509 139.718 236.582 132.355 231.807 126.224C225.475 118.106 217.758 105.336 221.547 94.8452C227.601 78.0698 238.323 91.5795 238.323 91.5795Z" fill="#3D8EAE"/>
<path d="M246.672 42.963C246.672 42.963 257.794 52.1287 262.847 53.5767C267.915 55.0247 279.73 41.0375 279.73 41.0375L286 49.9567C286 49.9567 270.811 64.4214 262.369 63.6974C253.928 62.9734 241.157 53.3302 241.157 53.3302L246.672 42.963Z" fill="#FFE8D2"/>
<path d="M200.722 30.3769L284 59.8669L292.155 36.8368L208.878 7.34675L200.722 30.3769Z" fill="#E5BA86"/>
<path d="M246.64 42.9785L233.362 42.9477C233.362 42.9477 224.905 43.8566 220.099 47.7847C216.571 50.6653 210.702 63.22 207.821 69.7206C206.697 72.2624 206.157 75.0044 206.25 77.7772L206.758 94.3832H216.016L216.756 78.6706C216.894 75.5743 217.819 72.5705 219.436 69.9209L223.996 63.7437C225.259 73.0172 224.766 82.4447 222.532 91.5487L221.762 94.6912H247.611C247.611 94.6912 256.869 64.6988 246.656 42.9785H246.64Z" fill="#F7981F"/>
<path d="M233.362 42.963L246.641 42.9938C256.854 64.7141 247.596 94.7066 247.596 94.7066H221.747L222.517 91.5641C224.751 82.4754 225.244 73.0325 223.981 63.759L223.904 63.8669C223.719 58.4291 223.241 52.5138 222.286 46.3212C227.092 43.6254 233.347 42.963 233.347 42.963H233.362Z" fill="#F7981F"/>
<path d="M207.822 69.7205C210.703 63.2199 216.572 50.6652 220.099 47.7846C220.762 47.23 221.517 46.7525 222.287 46.3212C223.242 52.4984 223.735 58.4137 223.904 63.8668L219.422 69.9362C217.82 72.5858 216.895 75.5896 216.741 78.6859L216.002 94.3985H206.744L206.235 77.7925C206.158 75.0197 206.682 72.2777 207.807 69.7359L207.822 69.7205Z" fill="#FFE8D2"/>
<path d="M224.643 72.4318H251.308C251.216 74.2341 251.062 75.9902 250.877 77.6539H224.551C224.643 75.9132 224.674 74.1725 224.643 72.4318Z" fill="#F7981F"/>
<path d="M247.596 94.7066H221.747L222.517 91.5641C222.995 89.6539 223.365 87.7129 223.688 85.772H249.675C248.659 91.2251 247.596 94.7066 247.596 94.7066Z" fill="#F7981F"/>
<path d="M250.877 77.6539C250.554 80.6424 250.122 83.3844 249.691 85.7567H223.704C224.135 83.0609 224.428 80.3651 224.566 77.6539H250.892H250.877Z" fill="#F5BE1F"/>
<path d="M224.243 65.9311H251.432C251.478 68.1493 251.432 70.3214 251.309 72.4164H224.644C224.597 70.2443 224.474 68.0877 224.243 65.9311Z" fill="#F5BE1F"/>
<path d="M242.697 42.9785C242.697 42.9785 244.068 47.2917 240.402 50.1107C240.402 50.1107 241.804 86.188 236.027 94.645H234.903C234.903 94.645 240.341 85.3869 239.047 49.8951C239.047 49.8951 233.532 46.8758 232.854 42.9939H242.697V42.9785Z" fill="#E88024"/>
<path d="M232.992 29.9616L233.362 42.9476L237.845 47.2146C239.97 48.3391 242.528 46.7679 242.466 44.3648L242.081 29.2838L232.992 29.977V29.9616Z" fill="#EEC290"/>
<path d="M246.903 19.1784C246.795 18.3158 247.858 18.1309 248.767 17.792C249.337 17.5764 250.014 17.8537 250.353 18.3004C250.708 18.7471 250.8 19.3325 250.892 19.8871C251.401 23.3993 252.202 27.2042 249.198 30.1926C248.767 26.8499 247.334 22.5366 246.903 19.1939V19.1784Z" fill="#A16D45"/>
<path d="M228.787 23.7383C228.787 23.7383 232.269 40.8527 238.939 42.5009C245.609 44.1492 251.647 32.7499 248.72 21.5355C245.794 10.321 230.358 12.5547 228.787 23.7383Z" fill="#EDCE9E"/>
<path d="M243.807 23.8614C245.193 23.6766 246.256 23.769 247.458 24.5546C247.92 24.8473 248.351 24.1233 247.889 23.8152C246.487 22.9063 245.193 22.8293 243.576 23.045C243.037 23.122 243.268 23.9384 243.807 23.8614Z" fill="#A16D45"/>
<path d="M230.697 22.398C230.512 21.5508 230.096 20.4879 229.126 20.4571C228.51 20.4417 227.97 20.9192 227.786 21.4584C227.601 21.9975 227.246 22.3056 227.277 22.8602C227.616 27.8666 228.987 30.47 232.792 32.3031C232.083 29.0066 231.39 25.6946 230.682 22.398H230.697Z" fill="#A16D45"/>
<path d="M231.776 27.7588C229.851 27.7588 228.295 29.2992 228.295 31.2094C228.295 33.1195 229.851 34.66 231.776 34.66C233.702 34.66 235.258 33.1195 235.258 31.2094C235.258 29.2992 233.702 27.7588 231.776 27.7588Z" fill="#EDCE9E"/>
<path d="M227.292 22.8447C227.292 22.8447 237.382 26.5572 243.498 26.9577C246.887 27.1734 254.219 25.7716 253.572 23.276C253.018 21.1502 251.277 20.5803 251.277 20.5803L227.292 22.8447Z" fill="#F2901F"/>
<path d="M227.278 22.8756C227.278 22.8756 236.952 26.0181 243.067 26.4186C246.456 26.6342 253.789 25.2324 253.142 22.7369C252.587 20.6111 250.847 20.0411 250.847 20.0411L227.278 22.8756Z" fill="#FAAA41"/>
<path d="M227.277 22.8757C227.277 22.8757 224.227 9.95134 237.29 8.01038C249.799 6.14644 250.846 20.0413 250.846 20.0413C248.227 22.9527 244.715 23.5997 240.325 23.5997L227.262 22.8911L227.277 22.8757Z" fill="#F7981F"/>
<path d="M250.847 20.0257C250.847 20.0257 250.369 13.7253 246.241 10.1823C246.426 12.7548 249.445 18.208 250.616 20.2568C250.693 20.1797 250.754 20.1181 250.831 20.0257H250.847Z" fill="#F7981F"/>
<path d="M250.631 20.2568C249.46 18.208 246.441 12.7549 246.256 10.1823C244.254 8.45702 241.389 7.39411 237.306 7.99489C233.625 8.54945 231.237 9.96666 229.681 11.7074C232.978 11.1682 241.034 10.475 243.391 16.2363C244.5 18.9475 245.086 21.2735 245.363 23.1221C247.396 22.6599 249.152 21.7973 250.647 20.2414L250.631 20.2568Z" fill="#F9A44E"/>
<path d="M229.666 11.7227C225.707 16.2054 227.278 22.8756 227.278 22.8756L240.341 23.5842C242.159 23.5842 243.838 23.4763 245.363 23.1374C245.085 21.2889 244.515 18.9474 243.391 16.2516C241.019 10.5058 232.962 11.1836 229.681 11.7227H229.666Z" fill="#F7981F"/>
<path d="M233.393 14.7574C233.393 15.5584 232.592 16.2054 231.606 16.2054C230.62 16.2054 229.819 15.5584 229.819 14.7574C229.819 13.9564 230.62 13.3094 231.606 13.3094C232.592 13.3094 233.393 13.9564 233.393 14.7574Z" fill="#F9A44E"/>
<path d="M473.025 168.941C473.025 168.094 472.994 167.246 472.948 166.399L477.092 163.903L476.553 160.807L476.306 159.452L475.752 156.355L470.915 155.4C470.483 154.06 470.006 152.751 469.451 151.472L472.578 147.59L471.007 144.864L470.314 143.662L468.743 140.935L463.705 141.721C462.889 140.658 462.011 139.641 461.102 138.656L462.766 133.788L460.347 131.77L459.284 130.876L456.866 128.858L452.291 131.385C451.197 130.691 450.057 130.044 448.902 129.444L448.794 124.191L445.836 123.113L444.542 122.635L441.585 121.557L438.103 125.546C436.856 125.269 435.608 125.053 434.329 124.899L432.404 119.924H424.717L422.791 124.899C421.513 125.069 420.265 125.285 419.033 125.546L415.52 121.541L412.563 122.62L411.269 123.097L408.311 124.175L408.203 129.459C407.063 130.044 405.939 130.691 404.861 131.369L400.224 128.812L397.805 130.83L396.742 131.724L394.324 133.742L396.003 138.671C395.109 139.626 394.247 140.643 393.446 141.675L388.316 140.874L386.745 143.6L386.052 144.802L384.48 147.529L387.654 151.472C387.115 152.72 386.637 154.014 386.221 155.323L381.276 156.294L380.722 159.39L380.475 160.746L379.921 163.842L384.126 166.384C384.08 167.231 384.049 168.094 384.049 168.956C384.049 169.511 384.064 170.081 384.095 170.635L379.905 173.162L380.444 176.258L380.691 177.613L381.23 180.71L385.898 181.634C386.329 183.051 386.806 184.453 387.376 185.809L384.419 189.475L385.99 192.201L386.683 193.403L388.254 196.13L392.799 195.421C393.708 196.653 394.694 197.824 395.71 198.949L394.231 203.277L396.65 205.295L397.713 206.189L400.131 208.207L404.059 206.05C405.369 206.913 406.724 207.698 408.111 208.422L408.203 212.89L411.161 213.968L412.455 214.446L415.413 215.524L418.309 212.212C419.849 212.566 421.42 212.859 423.007 213.044L424.594 217.157H432.28L433.867 213.075C435.469 212.89 437.04 212.612 438.581 212.243L441.461 215.555L444.419 214.476L445.713 213.999L448.671 212.92L448.763 208.515C450.18 207.791 451.551 206.99 452.876 206.127L456.758 208.268L459.177 206.25L460.239 205.357L462.658 203.339L461.21 199.087C462.257 197.947 463.259 196.761 464.198 195.513L468.681 196.207L470.252 193.48L470.946 192.278L472.517 189.552L469.621 185.963C470.191 184.576 470.699 183.144 471.13 181.696L475.706 180.787L476.245 177.69L476.491 176.335L477.046 173.239L472.948 170.758C472.979 170.158 472.994 169.557 472.994 168.941H473.025ZM450.535 168.941C450.535 173.608 449.071 177.937 446.591 181.495L437.78 172.684C438.35 171.405 438.673 170.004 438.673 168.525C438.673 166.861 438.273 165.29 437.564 163.903L445.96 155.508C448.825 159.221 450.535 163.873 450.535 168.925V168.941ZM410.545 181.557C408.034 177.983 406.57 173.639 406.57 168.941C406.57 163.857 408.296 159.19 411.192 155.477L419.51 163.796C418.771 165.213 418.339 166.815 418.339 168.525C418.339 170.05 418.694 171.498 419.294 172.807L410.56 181.542L410.545 181.557ZM428.553 146.959C433.251 146.959 437.595 148.437 441.169 150.933L432.804 159.298C431.495 158.697 430.047 158.342 428.522 158.342C426.997 158.342 425.626 158.666 424.363 159.236L416.013 150.887C419.572 148.407 423.9 146.943 428.568 146.943L428.553 146.959ZM428.553 190.938C423.5 190.938 418.848 189.228 415.135 186.363L423.9 177.598C425.287 178.307 426.858 178.707 428.522 178.707C430.185 178.707 431.834 178.276 433.251 177.536L442.031 186.317C438.304 189.213 433.636 190.938 428.568 190.938H428.553Z" fill="#3DC2DA"/>
<path d="M594.366 294.287C594.366 293.455 594.335 292.623 594.289 291.791L598.371 289.327L597.832 286.277L597.601 284.936L597.062 281.886L592.286 280.947C591.87 279.622 591.393 278.328 590.838 277.08L593.919 273.26L592.363 270.579L591.685 269.393L590.13 266.713L585.169 267.483C584.353 266.436 583.506 265.434 582.597 264.464L584.23 259.658L581.857 257.67L580.81 256.792L578.438 254.79L573.939 257.27C572.861 256.592 571.737 255.945 570.597 255.36L570.489 250.184L567.577 249.121L566.299 248.659L563.387 247.596L559.952 251.524C558.735 251.262 557.488 251.047 556.224 250.877L554.33 245.979H546.766L544.871 250.877C543.624 251.047 542.376 251.247 541.159 251.509L537.708 247.565L534.797 248.628L533.518 249.09L530.607 250.153L530.499 255.36C529.374 255.945 528.265 256.577 527.202 257.239L522.643 254.728L520.27 256.715L519.223 257.593L516.851 259.596L518.514 264.448C517.636 265.404 516.789 266.389 515.988 267.406L510.935 266.62L509.379 269.301L508.702 270.487L507.146 273.167L510.273 277.049C509.749 278.282 509.272 279.545 508.856 280.839L503.988 281.794L503.449 284.844L503.218 286.184L502.679 289.234L506.822 291.745C506.776 292.592 506.745 293.424 506.745 294.287C506.745 294.841 506.761 295.396 506.791 295.935L502.663 298.431L503.202 301.481L503.433 302.821L503.972 305.871L508.563 306.78C508.979 308.182 509.456 309.553 510.011 310.893L507.1 314.513L508.655 317.193L509.333 318.379L510.889 321.06L515.372 320.367C516.265 321.584 517.236 322.739 518.252 323.848L516.789 328.115L519.161 330.102L520.209 330.98L522.581 332.967L526.448 330.842C527.726 331.689 529.066 332.475 530.437 333.183L530.53 337.573L533.441 338.636L534.72 339.098L537.631 340.161L540.481 336.896C541.991 337.25 543.546 337.527 545.102 337.727L546.674 341.779H554.237L555.793 337.758C557.364 337.573 558.92 337.296 560.445 336.942L563.295 340.192L566.206 339.129L567.485 338.667L570.396 337.604L570.489 333.26C571.875 332.552 573.231 331.766 574.54 330.903L578.376 333.014L580.748 331.011L581.796 330.133L584.168 328.13L582.735 323.94C583.768 322.816 584.753 321.645 585.678 320.413L590.083 321.106L591.639 318.426L592.317 317.24L593.873 314.559L591.023 311.016C591.593 309.645 592.086 308.243 592.517 306.811L597.031 305.917L597.57 302.867L597.801 301.527L598.34 298.477L594.304 296.043C594.335 295.442 594.35 294.857 594.35 294.256L594.366 294.287ZM550.556 315.946C538.602 315.946 528.897 306.256 528.897 294.287C528.897 282.318 538.586 272.628 550.556 272.628C562.525 272.628 572.214 282.318 572.214 294.287C572.214 306.256 562.525 315.946 550.556 315.946Z" fill="#EBA2C7"/>
<path d="M174.395 312.464C174.395 311.756 174.364 311.032 174.333 310.338L177.814 308.228L177.352 305.625L177.152 304.485L176.69 301.881L172.623 301.08C172.269 299.956 171.853 298.847 171.391 297.768L174.025 294.503L172.7 292.207L172.115 291.206L170.79 288.911L166.554 289.573C165.861 288.68 165.137 287.817 164.366 287.001L165.768 282.903L163.735 281.193L162.841 280.438L160.808 278.728L156.957 280.854C156.033 280.269 155.078 279.73 154.107 279.221L154.015 274.8L151.519 273.891L150.425 273.491L147.93 272.582L145.003 275.94C143.955 275.709 142.893 275.524 141.83 275.386L140.212 271.211H133.742L132.125 275.386C131.062 275.524 129.999 275.709 128.967 275.925L126.009 272.551L123.514 273.46L122.42 273.861L119.925 274.769L119.832 279.221C118.862 279.714 117.922 280.253 117.013 280.839L113.116 278.698L111.082 280.407L110.189 281.162L108.156 282.872L109.573 287.016C108.818 287.832 108.094 288.664 107.416 289.542L103.103 288.864L101.778 291.16L101.193 292.161L99.8679 294.456L102.533 297.768C102.086 298.816 101.686 299.894 101.331 301.003L97.1722 301.82L96.71 304.423L96.5098 305.563L96.0476 308.166L99.5907 310.307C99.5444 311.031 99.529 311.74 99.529 312.48C99.529 312.957 99.5444 313.419 99.5598 313.897L96.0322 316.023L96.4944 318.626L96.6946 319.766L97.1568 322.369L101.085 323.139C101.439 324.341 101.855 325.512 102.317 326.652L99.8371 329.733L101.162 332.028L101.747 333.029L103.072 335.324L106.892 334.724C107.663 335.756 108.479 336.742 109.342 337.697L108.094 341.332L110.127 343.042L111.021 343.797L113.054 345.507L116.351 343.689C117.444 344.413 118.584 345.075 119.77 345.692L119.848 349.45L122.343 350.359L123.437 350.76L125.932 351.668L128.366 348.88C129.66 349.188 130.985 349.419 132.325 349.589L133.665 353.039H140.135L141.46 349.604C142.8 349.45 144.125 349.204 145.434 348.911L147.868 351.684L150.364 350.775L151.457 350.374L153.953 349.466L154.03 345.753C155.216 345.137 156.371 344.475 157.481 343.751L160.746 345.553L162.78 343.843L163.673 343.088L165.707 341.378L164.49 337.804C165.383 336.849 166.215 335.848 167.001 334.801L170.775 335.386L172.099 333.091L172.685 332.089L174.01 329.794L171.576 326.775C172.053 325.604 172.485 324.403 172.854 323.186L176.705 322.431L177.167 319.827L177.368 318.688L177.83 316.084L174.379 314.005C174.395 313.496 174.426 312.988 174.426 312.48L174.395 312.464ZM136.977 330.965C126.764 330.965 118.477 322.677 118.477 312.464C118.477 302.251 126.764 293.963 136.977 293.963C147.19 293.963 155.478 302.251 155.478 312.464C155.478 322.677 147.19 330.965 136.977 330.965Z" fill="#EBA2C7"/>
<path d="M613.714 171.39C613.714 170.188 613.668 169.002 613.606 167.816L619.444 164.289L618.674 159.914L618.335 157.988L617.565 153.613L610.741 152.273C610.14 150.378 609.447 148.53 608.677 146.728L613.082 141.244L610.864 137.392L609.894 135.698L607.675 131.847L600.559 132.956C599.403 131.462 598.171 130.014 596.877 128.627L599.218 121.757L595.814 118.907L594.32 117.659L590.915 114.809L584.461 118.368C582.905 117.382 581.318 116.473 579.67 115.626L579.516 108.216L575.342 106.691L573.508 106.029L569.334 104.504L564.42 110.127C562.664 109.741 560.892 109.433 559.09 109.202L556.379 102.193H545.549L542.838 109.202C541.051 109.433 539.28 109.741 537.539 110.111L532.594 104.458L528.42 105.983L526.586 106.645L522.412 108.17L522.258 115.626C520.64 116.458 519.069 117.367 517.529 118.322L510.997 114.732L507.593 117.582L506.099 118.83L502.694 121.68L505.066 128.627C503.803 129.983 502.602 131.4 501.462 132.864L494.222 131.739L492.003 135.59L491.033 137.285L488.815 141.136L493.297 146.697C492.543 148.468 491.865 150.271 491.279 152.119L484.301 153.49L483.531 157.865L483.192 159.79L482.422 164.165L488.368 167.755C488.306 168.956 488.26 170.173 488.26 171.39C488.26 172.191 488.291 172.977 488.322 173.762L482.422 177.336L483.192 181.711L483.531 183.637L484.301 188.011L490.879 189.305C491.48 191.308 492.173 193.28 492.959 195.205L488.784 200.381L491.002 204.232L491.973 205.927L494.191 209.778L500.599 208.777C501.878 210.502 503.264 212.166 504.712 213.768L502.633 219.868L506.037 222.718L507.531 223.965L510.935 226.815L516.466 223.765C518.314 224.982 520.224 226.091 522.181 227.123L522.304 233.408L526.479 234.933L528.312 235.596L532.486 237.121L536.569 232.453C538.741 232.962 540.943 233.362 543.192 233.639L545.441 239.432H556.271L558.504 233.67C560.769 233.393 562.987 233.008 565.159 232.5L569.226 237.167L573.401 235.642L575.234 234.98L579.408 233.455L579.532 227.247C581.534 226.23 583.46 225.105 585.324 223.873L590.808 226.892L594.212 224.042L595.706 222.795L599.111 219.945L597.062 213.953C598.541 212.35 599.958 210.656 601.267 208.9L607.583 209.886L609.801 206.035L610.772 204.34L612.99 200.489L608.908 195.421C609.724 193.465 610.433 191.462 611.049 189.398L617.503 188.119L618.274 183.744L618.613 181.819L619.383 177.444L613.606 173.947C613.637 173.1 613.668 172.253 613.668 171.39H613.714ZM555.87 207.267V191.37C559.398 190.507 562.571 188.735 565.113 186.317L578.823 194.528C573.169 201.321 565.067 206.019 555.87 207.252V207.267ZM523.259 194.682L536.923 186.394C539.465 188.766 542.607 190.522 546.104 191.37V207.267C536.969 206.035 528.928 201.398 523.274 194.682H523.259ZM546.088 135.498V151.395C542.099 152.366 538.571 154.491 535.875 157.418L522.304 149.285C527.988 141.921 536.43 136.807 546.104 135.513L546.088 135.498ZM579.547 149.131L566.006 157.341C563.311 154.461 559.814 152.366 555.87 151.395V135.498C565.467 136.792 573.863 141.844 579.547 149.131ZM550.987 180.879C545.734 180.879 541.483 176.628 541.483 171.375C541.483 166.122 545.734 161.87 550.987 161.87C556.24 161.87 560.492 166.122 560.492 171.375C560.492 176.628 556.24 180.879 550.987 180.879ZM570.813 165.86L584.476 157.572C586.232 161.824 587.203 166.491 587.203 171.375C587.203 176.674 586.063 181.696 584.014 186.24L570.427 178.106C571.151 175.996 571.552 173.732 571.552 171.375C571.552 169.464 571.29 167.616 570.797 165.844L570.813 165.86ZM531.131 165.968C530.653 167.693 530.407 169.511 530.407 171.39C530.407 173.778 530.823 176.088 531.577 178.214L518.037 186.425C515.942 181.85 514.771 176.751 514.771 171.39C514.771 166.568 515.726 161.963 517.436 157.757L531.146 165.968H531.131Z" fill="#F9C9CB"/>
<path d="M92.6123 335.478C92.6123 334.908 92.5969 334.338 92.5661 333.784L95.3234 332.105L94.9537 330.04L94.7997 329.132L94.43 327.052L91.1951 326.42C90.9024 325.527 90.5789 324.649 90.2092 323.786L92.3042 321.198L91.2567 319.381L90.7945 318.579L89.747 316.762L86.3735 317.286C85.8189 316.577 85.2489 315.899 84.6328 315.237L85.7419 311.986L84.1244 310.631L83.4158 310.03L81.7983 308.674L78.7483 310.354C78.0088 309.891 77.254 309.46 76.4838 309.06L76.4068 305.547L74.435 304.823L73.5724 304.5L71.6006 303.776L69.2745 306.441C68.4427 306.256 67.6108 306.117 66.7482 306.009L65.4696 302.698H60.3399L59.0614 306.009C58.2141 306.117 57.3669 306.256 56.5504 306.441L54.209 303.76L52.2372 304.484L51.3745 304.808L49.4028 305.532L49.3258 309.06C48.5555 309.46 47.8161 309.876 47.0921 310.338L43.9958 308.628L42.3783 309.984L41.6697 310.585L40.0523 311.94L41.1768 315.237C40.576 315.884 40.0061 316.546 39.4669 317.239L36.0471 316.7L34.9996 318.518L34.5375 319.319L33.49 321.137L35.6158 323.771C35.2615 324.603 34.938 325.465 34.6607 326.343L31.3642 326.99L30.9945 329.055L30.8404 329.963L30.4707 332.043L33.2897 333.737C33.2589 334.307 33.2435 334.877 33.2435 335.463C33.2435 335.832 33.2435 336.218 33.2743 336.587L30.4707 338.282L30.8404 340.346L30.9945 341.255L31.3642 343.319L34.4759 343.935C34.7531 344.89 35.092 345.815 35.4617 346.723L33.49 349.173L34.5375 350.99L34.9996 351.791L36.0471 353.609L39.0818 353.132C39.698 353.948 40.345 354.734 41.0382 355.489L40.0523 358.385L41.6697 359.74L42.3783 360.341L43.9958 361.697L46.6146 360.249C47.4926 360.819 48.3861 361.358 49.3258 361.835L49.3874 364.808L51.3591 365.532L52.2218 365.856L54.1936 366.58L56.1345 364.362C57.1666 364.608 58.2141 364.793 59.277 364.916L60.3399 367.658H65.4696L66.5325 364.931C67.5954 364.808 68.6583 364.623 69.6904 364.377L71.616 366.58L73.5878 365.856L74.4504 365.532L76.4222 364.808L76.4838 361.866C77.4235 361.388 78.3477 360.849 79.2258 360.264L81.8291 361.697L83.4466 360.341L84.1552 359.756L85.7727 358.4L84.8022 355.566C85.5108 354.795 86.1732 354.01 86.7894 353.178L89.7778 353.64L90.8254 351.822L91.2875 351.021L92.335 349.204L90.4094 346.8C90.7945 345.876 91.1334 344.921 91.4261 343.951L94.4916 343.35L94.8613 341.27L95.0154 340.361L95.3851 338.282L92.6431 336.634C92.6585 336.233 92.6739 335.832 92.6739 335.417L92.6123 335.478ZM65.2231 352.469V344.937C66.8868 344.536 68.3965 343.689 69.598 342.549L76.0833 346.431C73.4029 349.65 69.5672 351.869 65.2077 352.454L65.2231 352.469ZM49.7725 346.508L56.2423 342.58C57.4439 343.704 58.9381 344.536 60.5864 344.937V352.469C56.2578 351.884 52.4529 349.696 49.7725 346.508ZM60.5864 318.472V326.004C58.6917 326.467 57.028 327.468 55.7494 328.854L49.3258 325.003C52.0215 321.522 56.0267 319.103 60.6018 318.472H60.5864ZM76.4376 324.926L70.0293 328.808C68.7508 327.452 67.1025 326.451 65.2231 325.989V318.456C69.7675 319.072 73.7418 321.46 76.4376 324.911V324.926ZM62.9125 339.961C60.4324 339.961 58.4144 337.943 58.4144 335.463C58.4144 332.983 60.4324 330.965 62.9125 330.965C65.3926 330.965 67.4106 332.983 67.4106 335.463C67.4106 337.943 65.3926 339.961 62.9125 339.961ZM72.2938 332.844L78.7637 328.916C79.5955 330.934 80.0576 333.137 80.0576 335.463C80.0576 337.974 79.5185 340.346 78.548 342.503L72.1089 338.651C72.4478 337.65 72.6481 336.587 72.6481 335.463C72.6481 334.554 72.5249 333.676 72.2938 332.844ZM53.5004 332.89C53.2847 333.707 53.1615 334.569 53.1615 335.463C53.1615 336.603 53.3617 337.681 53.716 338.698L47.3078 342.58C46.3219 340.408 45.7673 338.004 45.7673 335.463C45.7673 333.183 46.2141 330.995 47.0305 329.008L53.5158 332.89H53.5004Z" fill="#F9C9CB"/>
<path d="M184.407 409.866C184.407 408.773 184.376 407.694 184.314 406.632L189.598 403.427L188.905 399.468L188.597 397.728L187.903 393.769L181.711 392.552C181.172 390.842 180.54 389.163 179.847 387.53L183.852 382.57L181.834 379.088L180.956 377.563L178.938 374.082L172.499 375.083C171.451 373.728 170.342 372.418 169.172 371.17L171.297 364.947L168.217 362.359L166.861 361.219L163.78 358.631L157.926 361.851C156.525 360.957 155.077 360.141 153.598 359.371L153.459 352.654L149.67 351.283L148.006 350.683L144.216 349.312L139.765 354.41C138.178 354.056 136.56 353.779 134.943 353.579L132.494 347.232H122.666L120.216 353.579C118.599 353.794 116.981 354.056 115.41 354.41L110.927 349.281L107.138 350.652L105.474 351.252L101.685 352.623L101.546 359.386C100.083 360.141 98.65 360.957 97.2636 361.835L91.3483 358.57L88.2674 361.158L86.9118 362.297L83.831 364.885L85.9876 371.186C84.8476 372.418 83.7539 373.697 82.7218 375.037L76.1595 374.02L74.1416 377.502L73.2635 379.027L71.2455 382.508L75.2969 387.545C74.6037 389.147 74.0029 390.78 73.4638 392.459L67.1479 393.707L66.4547 397.666L66.1466 399.407L65.4534 403.366L70.8296 406.616C70.768 407.71 70.7218 408.804 70.7218 409.913C70.7218 410.637 70.7526 411.345 70.768 412.054L65.4072 415.289L66.1004 419.248L66.4085 420.988L67.1017 424.947L73.0632 426.118C73.6024 427.936 74.234 429.723 74.9426 431.463L71.1685 436.162L73.1865 439.643L74.0645 441.168L76.0825 444.65L81.89 443.741C83.0607 445.312 84.3085 446.822 85.6179 448.254L83.7231 453.785L86.804 456.373L88.1596 457.512L91.2405 460.1L96.2624 457.343C97.926 458.452 99.6667 459.453 101.454 460.378L101.561 466.077L105.351 467.448L107.015 468.049L110.804 469.42L114.501 465.184C116.473 465.646 118.476 466 120.509 466.262L122.542 471.515H132.37L134.388 466.293C136.437 466.047 138.44 465.692 140.427 465.23L144.124 469.451L147.913 468.08L149.577 467.479L153.367 466.108L153.474 460.47C155.277 459.546 157.033 458.529 158.727 457.42L163.703 460.162L166.784 457.574L168.14 456.434L171.22 453.846L169.372 448.408C170.712 446.945 171.991 445.42 173.177 443.833L178.907 444.727L180.925 441.245L181.803 439.72L183.821 436.239L180.124 431.648C180.864 429.877 181.511 428.059 182.065 426.195L187.919 425.04L188.612 421.081L188.92 419.34L189.613 415.381L184.376 412.223C184.407 411.453 184.437 410.683 184.437 409.897L184.407 409.866ZM131.985 442.385V427.982C135.189 427.196 138.055 425.594 140.365 423.407L152.797 430.847C147.667 437.009 140.319 441.261 131.985 442.385ZM102.424 430.986L114.809 423.484C117.105 425.641 119.954 427.212 123.128 427.997V442.401C114.856 441.292 107.554 437.086 102.424 431.001V430.986ZM123.128 377.348V391.751C119.508 392.629 116.319 394.57 113.87 397.204L101.561 389.825C106.707 383.155 114.363 378.518 123.128 377.332V377.348ZM153.444 389.702L141.182 397.142C138.748 394.539 135.575 392.629 131.985 391.766V377.363C140.689 378.534 148.299 383.109 153.444 389.717V389.702ZM127.549 418.478C122.789 418.478 118.938 414.626 118.938 409.866C118.938 405.106 122.789 401.255 127.549 401.255C132.309 401.255 136.16 405.106 136.16 409.866C136.16 414.626 132.309 418.478 127.549 418.478ZM145.51 404.86L157.896 397.358C159.482 401.209 160.376 405.445 160.376 409.866C160.376 414.673 159.344 419.232 157.48 423.345L145.171 415.967C145.834 414.056 146.204 412.008 146.204 409.866C146.204 408.126 145.957 406.462 145.526 404.86H145.51ZM109.556 404.952C109.125 406.524 108.894 408.157 108.894 409.866C108.894 412.038 109.264 414.118 109.957 416.059L97.695 423.499C95.8002 419.34 94.7373 414.734 94.7373 409.866C94.7373 405.492 95.6 401.332 97.1558 397.512L109.572 404.952H109.556Z" fill="#3DC2DA"/>
<path d="M388.656 528.773L372.589 406.154L335.248 417.522L297.923 406.154L281.856 528.773H388.656Z" fill="#4A8FBA"/>
<path d="M381.015 470.437L372.589 406.154L335.248 417.522L297.923 406.154L289.497 470.437H335.248H381.015Z" fill="#33809D"/>
<path d="M135.668 164.135H534.828C542.669 164.135 549.031 170.497 549.031 178.337V439.32C549.031 447.161 542.669 453.523 534.828 453.523H135.683C127.843 453.523 121.48 447.161 121.48 439.32V178.337C121.48 170.497 127.843 164.135 135.683 164.135H135.668Z" fill="#4A8FBA"/>
<path d="M549.031 178.337C549.031 170.497 542.669 164.135 534.828 164.135H135.683C127.843 164.135 121.48 170.497 121.48 178.337V396.988H549.031V178.337Z" fill="#4A8FBA"/>
<path d="M121.48 418.262V439.304C121.48 447.145 127.843 453.507 135.683 453.507H534.844C542.685 453.507 549.047 447.145 549.047 439.304V418.262H121.48Z" fill="#CAEAF7"/>
<path d="M539.789 176.443H133.789V404.244H539.789V176.443Z" fill="#AFD8ED"/>
<path d="M347.572 435.885C347.572 442.693 342.057 448.193 335.264 448.193C328.47 448.193 322.956 442.678 322.956 435.885C322.956 429.091 328.47 423.576 335.264 423.576C342.057 423.576 347.572 429.091 347.572 435.885Z" fill="#75BEDB"/>
<path d="M399.793 541.251H270.719C263.032 541.251 256.747 534.966 256.747 527.279C256.747 519.592 263.032 513.307 270.719 513.307H399.793C407.48 513.307 413.765 519.592 413.765 527.279C413.765 534.966 407.48 541.251 399.793 541.251Z" fill="#CAEAF7"/>
<path d="M539.789 176.443H133.789V187.534H539.789V176.443Z" fill="#8FCCE4"/>
<path d="M427.643 410.744H364.639L357.753 435.638H356.151C354.426 435.638 353.024 437.04 353.024 438.765C353.024 440.49 354.364 441.815 356.028 441.877L350.436 462.118H349.158C347.432 462.118 346.031 463.52 346.031 465.245C346.031 466.817 347.201 468.111 348.711 468.326L343.104 488.599H342.164C340.439 488.599 339.037 490 339.037 491.726C339.037 493.189 340.054 494.406 341.394 494.745L335.771 515.079H335.171C333.445 515.079 332.043 516.481 332.043 518.206C332.043 519.546 332.906 520.686 334.092 521.133L328.439 541.559H328.177C326.452 541.559 325.05 542.961 325.05 544.686C325.05 545.918 325.774 546.966 326.806 547.474L321.122 568.039C319.427 568.07 318.072 569.457 318.072 571.151C318.072 572.26 318.657 573.231 319.535 573.785L314.39 592.409C314.174 593.21 314.267 594.057 314.683 594.781C315.099 595.505 315.761 596.029 316.562 596.245C316.839 596.322 317.117 596.368 317.409 596.368C317.933 596.368 318.457 596.229 318.934 595.968C319.658 595.552 320.182 594.889 320.413 594.073L325.882 574.263H375.931L370.909 592.409C370.693 593.21 370.786 594.057 371.202 594.781C371.617 595.505 372.28 596.029 373.081 596.245C373.358 596.322 373.635 596.368 373.913 596.368C375.315 596.368 376.547 595.428 376.917 594.073L382.385 574.263H385.281C387.007 574.263 388.408 572.861 388.408 571.136C388.408 569.41 387.007 568.009 385.281 568.009H384.11L389.702 547.782H392.259C393.985 547.782 395.387 546.381 395.387 544.655C395.387 542.93 393.985 541.528 392.259 541.528H391.428L397.019 521.302H399.238C400.963 521.302 402.365 519.9 402.365 518.175C402.365 516.45 400.963 515.048 399.238 515.048H398.745L404.337 494.822H406.231C407.957 494.822 409.358 493.42 409.358 491.695C409.358 489.97 407.957 488.568 406.231 488.568H406.062L411.654 468.342H413.209C414.935 468.342 416.337 466.94 416.337 465.215C416.337 463.489 415.027 462.195 413.379 462.103L418.971 441.861H420.188C421.913 441.861 423.315 440.46 423.315 438.734C423.315 437.178 422.175 435.9 420.681 435.669L426.488 414.673L427.582 410.714L427.643 410.744ZM383.294 547.782L377.702 568.009H327.653L333.245 547.782H383.294ZM334.97 541.544L340.562 521.318H390.611L385.019 541.544H334.97ZM342.287 515.063L347.879 494.837H397.928L392.336 515.063H342.287ZM349.605 488.583L355.196 468.357H405.245L399.654 488.583H349.605ZM356.922 462.103L362.513 441.877H412.563L406.971 462.103H356.922ZM364.239 435.623L369.399 416.968H419.448L414.288 435.623H364.239Z" fill="#1E7A9E"/>
<path d="M475.213 592.394L470.067 573.77C470.945 573.215 471.531 572.245 471.531 571.136C471.531 569.441 470.16 568.055 468.481 568.024L462.797 547.459C463.829 546.951 464.553 545.888 464.553 544.671C464.553 542.945 463.151 541.544 461.426 541.544H461.148L455.495 521.117C456.696 520.686 457.544 519.546 457.544 518.191C457.544 516.465 456.142 515.063 454.416 515.063H453.816L448.193 494.729C449.549 494.391 450.565 493.174 450.565 491.71C450.565 489.985 449.164 488.583 447.438 488.583H446.499L440.891 468.311C442.401 468.095 443.572 466.801 443.572 465.23C443.572 463.505 442.17 462.103 440.445 462.103H439.166L433.574 441.861C435.238 441.8 436.578 440.429 436.578 438.75C436.578 437.071 435.176 435.623 433.451 435.623H431.849L426.781 417.307C428.552 416.675 429.831 414.996 429.831 412.993C429.831 410.467 427.767 408.403 425.24 408.403H363.684C361.158 408.403 359.094 410.467 359.094 412.993C359.094 415.52 361.158 417.584 363.684 417.584H363.854L368.86 435.669C367.366 435.9 366.226 437.194 366.226 438.734C366.226 440.46 367.628 441.861 369.353 441.861H370.57L376.162 462.103C374.514 462.195 373.204 463.535 373.204 465.215C373.204 466.894 374.606 468.342 376.331 468.342H377.887L383.479 488.568H383.31C381.584 488.568 380.182 489.97 380.182 491.695C380.182 493.42 381.584 494.822 383.31 494.822H385.204L390.796 515.048H390.288C388.562 515.048 387.161 516.45 387.161 518.175C387.161 519.9 388.562 521.302 390.288 521.302H392.521L398.113 541.528H397.281C395.556 541.528 394.154 542.93 394.154 544.655C394.154 546.381 395.556 547.782 397.281 547.782H399.839L405.43 568.009H404.26C402.534 568.009 401.132 569.41 401.132 571.136C401.132 572.861 402.534 574.263 404.26 574.263H407.156L412.624 594.073C412.84 594.874 413.364 595.552 414.088 595.968C414.565 596.229 415.089 596.368 415.613 596.368C415.89 596.368 416.183 596.337 416.46 596.245C417.261 596.029 417.939 595.505 418.339 594.781C418.755 594.057 418.848 593.21 418.632 592.409L413.61 574.263H463.659L469.128 594.073C469.497 595.428 470.73 596.368 472.132 596.368C472.424 596.368 472.702 596.322 472.963 596.26C473.764 596.045 474.442 595.521 474.843 594.797C475.259 594.073 475.351 593.226 475.135 592.425L475.213 592.394ZM420.419 417.599L425.41 435.638H375.376L370.385 417.599H420.434H420.419ZM427.135 441.877L432.727 462.103H382.678L377.086 441.877H427.135ZM434.452 468.357L440.044 488.583H389.995L384.403 468.357H434.452ZM441.769 494.837L447.361 515.063H397.312L391.72 494.837H441.769ZM449.087 521.318L454.678 541.544H404.645L399.053 521.318H449.102H449.087ZM456.404 547.798L461.996 568.024H411.946L406.355 547.798H456.404Z" fill="#23B2D2"/>
<path d="M521.133 200.751H392.306C389.456 200.751 387.114 203.092 387.114 205.942C387.114 208.792 389.44 211.134 392.306 211.134H521.133C523.983 211.134 526.324 208.792 526.324 205.942C526.324 203.092 523.983 200.751 521.133 200.751Z" fill="#D3EDF8"/>
<path d="M378.057 205.942C378.057 209.454 375.207 212.32 371.679 212.32C368.152 212.32 365.302 209.47 365.302 205.942C365.302 202.415 368.152 199.565 371.679 199.565C375.207 199.565 378.057 202.415 378.057 205.942Z" fill="#ECAEAD"/>
<path d="M521.133 225.075H392.306C389.456 225.075 387.114 227.416 387.114 230.266C387.114 233.116 389.44 235.457 392.306 235.457H521.133C523.983 235.457 526.324 233.116 526.324 230.266C526.324 227.416 523.983 225.075 521.133 225.075Z" fill="#D3EDF8"/>
<path d="M378.057 230.266C378.057 233.778 375.207 236.643 371.679 236.643C368.152 236.643 365.302 233.793 365.302 230.266C365.302 226.738 368.152 223.888 371.679 223.888C375.207 223.888 378.057 226.738 378.057 230.266Z" fill="#ECAEAD"/>
<path d="M521.133 249.414H392.306C389.456 249.414 387.114 251.755 387.114 254.605C387.114 257.455 389.44 259.796 392.306 259.796H521.133C523.983 259.796 526.324 257.455 526.324 254.605C526.324 251.755 523.983 249.414 521.133 249.414Z" fill="#D3EDF8"/>
<path d="M378.057 254.605C378.057 258.117 375.207 260.982 371.679 260.982C368.152 260.982 365.302 258.132 365.302 254.605C365.302 251.077 368.152 248.227 371.679 248.227C375.207 248.227 378.057 251.077 378.057 254.605Z" fill="#ECAEAD"/>
<path d="M521.133 273.753H392.306C389.456 273.753 387.114 276.094 387.114 278.944C387.114 281.794 389.44 284.135 392.306 284.135H521.133C523.983 284.135 526.324 281.794 526.324 278.944C526.324 276.094 523.983 273.753 521.133 273.753Z" fill="#D3EDF8"/>
<path d="M378.057 278.929C378.057 282.441 375.207 285.306 371.679 285.306C368.152 285.306 365.302 282.456 365.302 278.929C365.302 275.401 368.152 272.551 371.679 272.551C375.207 272.551 378.057 275.401 378.057 278.929Z" fill="#ECAEAD"/>
<path d="M376.716 305.594H513.6C520.147 305.594 525.462 310.908 525.462 317.455V353.147C525.462 359.694 520.147 365.009 513.6 365.009H376.716C370.17 365.009 364.855 359.694 364.855 353.147V317.455C364.855 310.908 370.17 305.594 376.716 305.594Z" fill="#D3EDF8"/>
<path d="M166.63 292.592H337.897C344.444 292.592 349.759 297.907 349.759 304.454V340.146C349.759 346.693 344.444 352.007 337.897 352.007H166.63C160.084 352.007 154.769 346.693 154.769 340.146V304.454C154.769 297.907 160.084 292.592 166.63 292.592Z" fill="#D3EDF8"/>
<path d="M166.63 360.649H337.897C344.444 360.649 349.759 365.964 349.759 372.511V382.878C349.759 389.425 344.444 394.739 337.897 394.739H166.63C160.084 394.739 154.769 389.425 154.769 382.878V372.511C154.769 365.964 160.084 360.649 166.63 360.649Z" fill="#D3EDF8"/>
<path d="M372.419 377.964H517.898C522.073 377.964 525.462 381.353 525.462 385.527V385.805C525.462 389.979 522.073 393.368 517.898 393.368H372.419C368.244 393.368 364.855 389.979 364.855 385.805V385.527C364.855 381.353 368.244 377.964 372.419 377.964Z" fill="#D3EDF8"/>
<path d="M332.229 282.733H172.3C161.686 282.733 153.044 274.092 153.044 263.478V217.819C153.044 207.205 161.686 198.563 172.3 198.563H332.229C342.842 198.563 351.484 207.205 351.484 217.819V263.478C351.484 274.092 342.842 282.733 332.229 282.733ZM172.3 200.104C162.533 200.104 154.584 208.053 154.584 217.819V263.478C154.584 273.244 162.533 281.193 172.3 281.193H332.229C341.995 281.193 349.944 273.244 349.944 263.478V217.819C349.944 208.053 341.995 200.104 332.229 200.104H172.3Z" fill="#78BCD2"/>
<path d="M653.15 509.872H507.193V560.291H653.15V509.872Z" fill="#EEC268"/>
<path d="M507.193 509.872V559.721L525.493 509.872H507.193Z" fill="#EEC268"/>
<path d="M566.3 509.872H543.27L524.754 560.291H547.784L566.3 509.872Z" fill="#EEC268"/>
<path d="M525.493 509.872L507.193 559.721V560.291H524.754L543.27 509.872H525.493Z" fill="#49575E"/>
<path d="M607.106 509.872H584.091L565.575 560.291H588.589L607.106 509.872Z" fill="#EEC268"/>
<path d="M566.3 509.872L547.784 560.291H565.576L584.092 509.872H566.3Z" fill="#49575E"/>
<path d="M647.913 509.872H624.898L606.382 560.291H629.397L647.913 509.872Z" fill="#EEC268"/>
<path d="M607.106 509.872L588.59 560.291H606.382L624.898 509.872H607.106Z" fill="#49575E"/>
<path d="M653.15 544.055L647.189 560.291H653.15V544.055Z" fill="#EEC268"/>
<path d="M653.15 509.872H647.913L629.396 560.291H647.189L653.15 544.055V509.872Z" fill="#49575E"/>
<path d="M508.517 506.36H501.2V596.353H508.517V506.36Z" fill="#DEF2FC"/>
<path d="M660.113 506.36H652.796V596.353H660.113V506.36Z" fill="#DEF2FC"/>
<path d="M282.657 588.265C282.657 588.265 294.288 592.486 293.363 595.536C292.439 598.602 272.583 592.116 272.583 592.116L271.843 593.025L269.641 592.194L269.702 587.957L276.788 584.414L282.642 588.265H282.657Z" fill="#2C2B26"/>
<path d="M253.297 588.481C253.297 588.481 241.035 591.639 241.959 594.704C242.883 597.77 262.74 591.285 262.74 591.285L263.479 592.194L265.682 591.362L265.62 587.125L258.534 583.582L253.312 588.481H253.297Z" fill="#2C2B26"/>
<path d="M251.448 513.846C251.448 513.846 256.563 568.656 253.358 588.496H265.605L271.135 530.699L251.448 513.846Z" fill="#121211"/>
<path d="M280.994 514.139C280.994 515.048 282.658 588.25 282.658 588.25L269.718 587.942C269.718 587.942 266.406 554.268 262.108 536.491L251.448 513.831L280.979 514.139H280.994Z" fill="#1A1A1A"/>
<path d="M258.672 457.374C258.672 457.374 243.407 460.47 238.246 466.94L250.4 485.81L258.672 457.358V457.374Z" fill="#1A1A1A"/>
<path d="M264.557 456.942C264.557 456.942 257.425 456.865 254.56 459.731C251.695 462.596 245.317 497.471 250.231 512.214H276.835C276.835 512.214 271.104 481.112 280.116 460.224L275.202 457.774L264.557 456.958V456.942Z" fill="#DCECE8"/>
<path d="M268.501 457.066C266.252 460.763 255.314 481.02 263.571 512.198H262.293C262.293 512.198 252.603 478.786 267.222 457.066H268.501Z" fill="#C5D6D1"/>
<path d="M280.116 460.224L275.202 457.774L260.491 476.783L258.688 457.389C258.688 457.389 257.225 456.28 254.344 459.423C254.344 459.423 241.112 479.895 251.71 518.683H257.148L258.704 514.031L261.554 518.683H280.948C280.948 518.683 283.274 505.497 280.424 488.691L280.147 460.239L280.116 460.224Z" fill="#121211"/>
<path d="M258.411 477.8L256.809 457.435C258.041 456.896 258.673 457.358 258.673 457.358L260.475 476.753L275.187 457.744L276.219 458.267L260.46 479.602C260.46 479.602 259.566 495.038 259.443 515.295L258.658 514.001L258.057 515.787C257.502 505.22 256.655 483.762 258.396 477.785L258.411 477.8Z" fill="#302F2F"/>
<path d="M276.403 453.184C277.682 452.044 278.96 450.796 279.592 449.209C280.208 447.623 279.993 445.605 278.622 444.557C280.501 443.741 281.148 441.168 280.147 439.397C279.145 437.641 276.912 436.778 274.863 436.978C272.814 437.194 270.966 438.318 269.502 439.751C267.407 441.785 265.974 444.557 265.99 447.438C266.051 453.461 271.474 457.589 276.388 453.184H276.403Z" fill="#704C34"/>
<path d="M272.368 446.806L271.967 458.945L262.031 461.194L262.586 446.067L272.368 446.806Z" fill="#E2AD6D"/>
<path d="M262.139 456.527L273.861 457.713L267.007 463.32C264.958 464.999 261.877 464.337 260.675 461.964C260.244 461.117 260.259 460.116 260.691 459.269L262.123 456.511L262.139 456.527Z" fill="#E2AD6D"/>
<path d="M257.395 433.928C257.518 432.988 256.363 432.804 255.392 432.434C254.776 432.203 254.052 432.495 253.682 432.988C253.312 433.466 253.189 434.098 253.112 434.698C252.558 438.472 251.71 442.57 254.93 445.774C255.392 442.169 256.932 437.533 257.395 433.944V433.928Z" fill="#704C34"/>
<path d="M276.896 438.842C276.896 438.842 273.153 457.251 265.975 459.022C258.796 460.794 252.311 448.547 255.453 436.485C258.596 424.424 275.217 426.811 276.896 438.842Z" fill="#EEC082"/>
<path d="M260.737 438.965C259.243 438.765 258.103 438.873 256.809 439.705C256.316 440.028 255.854 439.243 256.346 438.919C257.856 437.949 259.243 437.856 260.983 438.087C261.569 438.164 261.322 439.042 260.737 438.965Z" fill="#704C34"/>
<path d="M273.661 443.171C275.725 443.171 277.404 444.835 277.404 446.883C277.404 448.932 275.725 450.596 273.661 450.596C271.597 450.596 269.917 448.932 269.917 446.883C269.917 444.835 271.597 443.171 273.661 443.171Z" fill="#EEC082"/>
<path d="M273.353 441.492C273.492 442.092 273.707 442.693 274.139 443.125C274.94 443.941 276.234 443.926 277.374 443.864C277.759 442.955 278.128 442.031 278.267 441.045C278.421 440.074 278.344 439.027 277.882 438.149C277.42 437.271 276.542 436.578 275.571 436.516C272.644 436.3 272.906 439.628 273.353 441.492Z" fill="#704C34"/>
<path d="M278.483 437.872C278.483 437.872 267.638 441.861 261.045 442.293C257.394 442.524 249.507 441.014 250.216 438.318C250.816 436.039 252.68 435.422 252.68 435.422L278.483 437.872Z" fill="#F2901F"/>
<path d="M278.514 437.903C278.514 437.903 268.1 441.292 261.523 441.707C257.872 441.938 249.985 440.429 250.693 437.733C251.294 435.453 253.158 434.837 253.158 434.837L278.514 437.887V437.903Z" fill="#FAAA41"/>
<path d="M278.514 437.903C278.514 437.903 281.795 423.992 267.731 421.897C254.267 419.895 253.158 434.837 253.158 434.837C255.977 437.979 259.751 438.657 264.465 438.657L278.514 437.887V437.903Z" fill="#F7981F"/>
<path d="M253.158 434.852C253.158 434.852 253.667 428.074 258.103 424.254C257.903 427.012 254.652 432.896 253.389 435.084C253.312 435.006 253.235 434.929 253.158 434.837V434.852Z" fill="#F7981F"/>
<path d="M253.389 435.084C254.652 432.881 257.902 427.012 258.102 424.254C260.259 422.406 263.34 421.25 267.73 421.897C271.689 422.483 274.262 424.008 275.941 425.903C272.398 425.317 263.74 424.578 261.183 430.77C259.982 433.682 259.366 436.193 259.073 438.18C256.885 437.687 254.991 436.763 253.389 435.084Z" fill="#F9A44E"/>
<path d="M275.941 425.902C280.208 430.724 278.514 437.903 278.514 437.903L264.465 438.673C262.508 438.673 260.706 438.55 259.073 438.18C259.381 436.193 259.982 433.682 261.184 430.77C263.725 424.578 272.398 425.317 275.941 425.902Z" fill="#F7981F"/>
<path d="M271.92 429.168C271.92 430.031 272.783 430.739 273.846 430.739C274.909 430.739 275.772 430.031 275.772 429.168C275.772 428.306 274.909 427.597 273.846 427.597C272.783 427.597 271.92 428.306 271.92 429.168Z" fill="#F9A44E"/>
<path d="M154.322 588.265C154.322 588.265 142.692 592.486 143.616 595.536C144.541 598.602 164.397 592.116 164.397 592.116L165.136 593.025L167.339 592.194L167.278 587.957L160.191 584.414L154.338 588.265H154.322Z" fill="#2C2B26"/>
<path d="M183.684 588.481C183.684 588.481 195.945 591.639 195.021 594.704C194.097 597.77 174.241 591.285 174.241 591.285L173.501 592.194L171.298 591.362L171.36 587.125L178.446 583.582L183.668 588.481H183.684Z" fill="#2C2B26"/>
<path d="M185.517 513.846C185.517 513.846 180.403 568.656 183.607 588.496H171.36L165.83 530.699L185.517 513.846Z" fill="#2A6B83"/>
<path d="M155.986 514.139C155.986 515.048 154.323 588.25 154.323 588.25L167.262 587.942C167.262 587.942 170.574 554.268 174.872 536.491L185.532 513.831L156.002 514.139H155.986Z" fill="#367592"/>
<path d="M178.292 457.374C178.292 457.374 193.542 460.47 198.718 466.94L186.564 485.81L178.292 457.358V457.374Z" fill="#C5D6D1"/>
<path d="M172.408 456.942C172.408 456.942 179.771 456.526 182.636 459.392C185.501 462.257 191.648 497.456 186.734 512.198H160.13C160.13 512.198 165.861 481.097 156.849 460.208L161.763 457.759L172.408 456.942Z" fill="#DCECE8"/>
<path d="M168.464 457.066C170.713 460.763 181.651 481.02 173.394 512.198H174.672C174.672 512.198 184.362 478.786 169.743 457.066H168.464Z" fill="#C5D6D1"/>
<path d="M156.864 460.224L161.778 457.774L176.489 476.783L178.292 457.389C178.292 457.389 179.755 456.28 182.636 459.423C182.636 459.423 195.868 479.895 185.27 518.683H179.832L178.276 514.031L175.426 518.683H156.032C156.032 518.683 153.706 505.497 156.556 488.691L156.833 460.239L156.864 460.224Z" fill="#F5891F"/>
<path d="M155.633 496.825C155.34 500.938 155.186 503.11 155.17 505.99H177.384C177.322 502.709 177.245 499.644 177.168 496.825H155.617H155.633Z" fill="#F4CC22"/>
<path d="M156.619 484.532L156.573 488.676C156.681 490.185 156.788 491.649 156.896 493.066H177.061C176.953 489.646 176.83 486.75 176.737 484.532H156.619Z" fill="#F4CC22"/>
<path d="M179.556 496.825C179.51 499.906 179.433 503.033 179.325 505.99H188.044C188.568 502.771 188.922 499.721 189.138 496.825H179.572H179.556Z" fill="#F4CC22"/>
<path d="M189.214 484.532H179.402C179.54 487.058 179.587 489.985 179.587 493.066H189.338C189.446 490.016 189.384 487.181 189.214 484.532Z" fill="#F4CC22"/>
<path d="M178.554 477.8L180.156 457.435C178.924 456.896 178.308 457.358 178.308 457.358L176.506 476.753L161.794 457.744L160.762 458.267L176.521 479.602C176.521 479.602 177.414 495.038 177.538 515.295L178.323 514.001L178.924 515.787C179.463 505.22 180.326 483.762 178.585 477.785L178.554 477.8Z" fill="#E17526"/>
<path d="M156.865 460.224C156.865 460.224 149.348 462.288 148.824 467.464C148.439 471.284 153.43 486.55 156.064 494.252C156.865 496.609 159.607 497.672 161.794 496.47L167.617 493.174C169.142 492.342 169.82 490.524 169.204 488.891L156.865 460.208V460.224Z" fill="#C5D6D1"/>
<path d="M164.613 446.806L165.014 458.945L174.934 461.194L174.38 446.067L164.613 446.806Z" fill="#E5BA86"/>
<path d="M174.841 456.527L163.103 457.713L169.958 463.32C172.006 464.999 175.087 464.337 176.289 461.964C176.72 461.117 176.705 460.116 176.273 459.269L174.841 456.511V456.527Z" fill="#E5BA86"/>
<path d="M179.571 433.928C179.447 432.988 180.603 432.804 181.573 432.434C182.189 432.203 182.913 432.495 183.283 432.988C183.653 433.466 183.776 434.098 183.853 434.698C184.408 438.472 185.255 442.57 182.035 445.774C181.573 442.169 180.033 437.533 179.571 433.944V433.928Z" fill="#A16D45"/>
<path d="M160.083 438.842C160.083 438.842 163.827 457.251 171.005 459.022C178.184 460.794 184.669 448.547 181.526 436.485C178.384 424.424 161.763 426.811 160.083 438.842Z" fill="#EDCE9E"/>
<path d="M176.243 438.965C177.737 438.765 178.877 438.873 180.171 439.705C180.664 440.028 181.126 439.243 180.633 438.919C179.123 437.949 177.737 437.856 175.996 438.087C175.411 438.164 175.657 439.042 176.243 438.965Z" fill="#A16D45"/>
<path d="M162.132 437.394C161.932 436.47 161.485 435.345 160.453 435.299C159.791 435.268 159.221 435.792 159.021 436.377C158.82 436.963 158.435 437.286 158.481 437.887C158.851 443.279 160.314 446.067 164.412 448.054C163.657 444.496 162.902 440.953 162.148 437.394H162.132Z" fill="#A16D45"/>
<path d="M163.303 443.171C161.239 443.171 159.56 444.835 159.56 446.883C159.56 448.932 161.239 450.596 163.303 450.596C165.367 450.596 167.046 448.932 167.046 446.883C167.046 444.835 165.367 443.171 163.303 443.171Z" fill="#EDCE9E"/>
<path d="M158.481 437.872C158.481 437.872 169.326 441.861 175.919 442.293C179.57 442.524 187.457 441.014 186.748 438.318C186.147 436.039 184.283 435.422 184.283 435.422L158.481 437.872Z" fill="#F2901F"/>
<path d="M158.451 437.903C158.451 437.903 168.864 441.292 175.442 441.707C179.093 441.938 186.98 440.429 186.271 437.733C185.67 435.453 183.806 434.837 183.806 434.837L158.451 437.887V437.903Z" fill="#FAAA41"/>
<path d="M158.451 437.903C158.451 437.903 155.17 423.992 169.234 421.897C182.697 419.895 183.806 434.837 183.806 434.837C180.987 437.979 177.213 438.657 172.5 438.657L158.451 437.887V437.903Z" fill="#F7981F"/>
<path d="M183.807 434.852C183.807 434.852 183.299 428.074 178.862 424.254C179.063 427.012 182.313 432.896 183.576 435.083C183.653 435.006 183.73 434.929 183.807 434.837V434.852Z" fill="#F7981F"/>
<path d="M183.576 435.084C182.313 432.881 179.063 427.012 178.862 424.254C176.706 422.406 173.625 421.25 169.235 421.897C165.276 422.483 162.703 424.008 161.024 425.903C164.567 425.317 173.24 424.578 175.781 430.77C176.983 433.682 177.599 436.193 177.892 438.18C180.079 437.687 181.974 436.763 183.576 435.084Z" fill="#F9A44E"/>
<path d="M161.04 425.902C156.773 430.724 158.467 437.903 158.467 437.903L172.516 438.673C174.473 438.673 176.275 438.55 177.908 438.18C177.615 436.193 176.999 433.682 175.797 430.77C173.256 424.578 164.583 425.317 161.04 425.902Z" fill="#F7981F"/>
<path d="M165.044 429.168C165.044 430.031 164.181 430.739 163.118 430.739C162.056 430.739 161.193 430.031 161.193 429.168C161.193 428.306 162.056 427.597 163.118 427.597C164.181 427.597 165.044 428.306 165.044 429.168Z" fill="#F9A44E"/>
<path d="M252.095 460.316C231.099 467.556 208.763 467.34 187.843 459.669V517.805C209.024 523.135 230.883 523.289 252.095 518.252V460.316Z" fill="#D3ECF1"/>
<path d="M191.94 499.182C191.724 497.487 189.829 497.071 189.829 497.071L187.811 496.655V494.545C187.164 494.653 186.44 494.745 185.809 494.745C184.114 494.745 182.42 497.502 180.094 496.855C178.414 496.393 171.482 491.51 167.739 488.83C165.629 487.305 162.964 486.704 160.437 487.32C158.204 487.859 156.386 489.246 158.081 492.635C161.47 499.413 178.615 501.739 180.525 503.649C182.435 505.559 187.934 505.759 189.198 505.559C190.461 505.343 191.108 502.17 191.108 502.17C191.108 502.17 192.171 500.907 191.955 499.212L191.94 499.182Z" fill="#E5BA86"/>
<path d="M245.039 499.182C245.255 497.487 247.15 497.071 247.15 497.071L249.168 496.655V494.545C249.815 494.653 250.539 494.745 251.17 494.745C252.865 494.745 254.559 497.502 256.885 496.855C258.565 496.393 265.497 491.51 269.24 488.83C271.35 487.305 274.015 486.704 276.542 487.32C278.775 487.859 280.593 489.246 278.898 492.635C275.509 499.413 258.364 501.739 256.454 503.649C254.544 505.559 249.045 505.759 247.781 505.559C246.503 505.343 245.871 502.17 245.871 502.17C245.871 502.17 244.808 500.907 245.024 499.212L245.039 499.182Z" fill="#E5BA86"/>
<path d="M288.157 467.464C287.648 462.288 280.115 460.224 280.115 460.224L269.009 486.057C267.592 488.367 264.603 491.895 258.503 495.007C258.503 495.007 260.105 503.371 260.475 503.371C260.844 503.371 276.973 499.397 279.284 496.347C280.023 495.885 280.624 495.161 280.932 494.252C283.566 486.55 288.542 471.284 288.157 467.464Z" fill="#1A1A1A"/>
<path d="M404.583 328.161L392.906 326.852C388.069 326.313 383.479 324.418 379.658 321.399L368.321 312.464L360.711 321.383L377.856 335.709C381.137 338.451 385.05 340.346 389.255 341.224L403.366 344.182L404.583 328.146V328.161Z" fill="#FDDEBF"/>
<path d="M418.107 453.369L418.4 458.067L430.647 457.204L429.368 448.948L418.107 453.369Z" fill="#EEC290"/>
<path d="M384.773 426.657L385.05 431.371L397.312 430.508L396.034 422.252L384.773 426.657Z" fill="#EEC290"/>
<path d="M406.354 379.258L395.494 391.397C391.72 394.339 389.147 398.098 388.115 402.18L382.446 428.352L396.849 427.52L401.348 411.268C402.426 407.171 408.865 401.872 412.67 398.945L428.983 382.169L406.339 379.242L406.354 379.258Z" fill="#2B8099"/>
<path d="M410.297 381.753L409.974 419.494C409.943 422.267 410.374 425.009 411.237 427.643L417.214 454.339L431.91 453.061L426.318 428.737C425.394 424.793 425.424 420.68 426.395 416.737C428.752 407.202 432.819 388.716 430.662 382.339L410.313 381.753H410.297Z" fill="#3D8EAE"/>
<path d="M430.092 331.658C425.055 328.839 418.493 328.13 418.493 328.13L404.567 328.161C393.861 350.929 403.566 382.354 403.566 382.354H430.647L429.83 379.057C427.489 369.538 426.981 359.648 428.305 349.928L428.382 350.036C428.09 341.317 430.077 331.658 430.077 331.658H430.092Z" fill="#F7981F"/>
<path d="M429.846 379.042C427.504 369.522 426.996 359.633 428.321 349.912L428.398 350.02C428.105 341.301 430.092 331.643 430.092 331.643C425.055 328.824 418.493 328.115 418.493 328.115L404.567 328.146C393.861 350.914 403.566 382.339 403.566 382.339H430.647L429.83 379.042H429.846Z" fill="#F7981F"/>
<path d="M427.627 359.001H399.684C399.791 360.896 399.945 362.729 400.13 364.47H427.72C427.627 362.652 427.596 360.819 427.627 359.001Z" fill="#F7981F"/>
<path d="M403.582 382.354H430.663L429.847 379.058C429.354 377.055 428.953 375.022 428.63 372.988H401.395C402.457 378.703 403.582 382.354 403.582 382.354Z" fill="#F7981F"/>
<path d="M400.147 364.485C400.486 367.612 400.933 370.493 401.395 372.988H428.63C428.183 370.169 427.875 367.335 427.736 364.485H400.147Z" fill="#F5BE1F"/>
<path d="M428.059 352.208H399.577C399.53 354.534 399.577 356.813 399.7 359.001H427.644C427.69 356.736 427.828 354.472 428.075 352.208H428.059Z" fill="#F5BE1F"/>
<path d="M408.711 328.161C408.711 328.161 407.278 332.69 411.114 335.632C411.114 335.632 409.635 373.435 415.689 382.292H416.875C416.875 382.292 411.175 372.603 412.546 335.401C412.546 335.401 418.323 332.243 419.032 328.177H408.711V328.161Z" fill="#E88024"/>
<path d="M418.878 314.528L418.493 328.146L413.81 332.613C411.577 333.799 408.912 332.136 408.973 329.625L409.374 313.82L418.894 314.544L418.878 314.528Z" fill="#EEC290"/>
<path d="M404.306 303.221C404.429 302.313 403.304 302.128 402.365 301.758C401.764 301.527 401.071 301.82 400.701 302.297C400.331 302.775 400.224 303.375 400.147 303.961C399.607 307.643 398.776 311.632 401.918 314.759C402.365 311.247 403.874 306.734 404.321 303.237L404.306 303.221Z" fill="#A16D45"/>
<path d="M423.299 307.997C423.299 307.997 419.648 325.928 412.67 327.653C405.677 329.378 399.361 317.44 402.426 305.702C405.492 293.948 421.666 296.29 423.299 307.997Z" fill="#EDCE9E"/>
<path d="M407.556 308.12C406.108 307.92 404.984 308.028 403.72 308.844C403.243 309.152 402.781 308.382 403.274 308.074C404.753 307.119 406.093 307.042 407.787 307.257C408.357 307.334 408.111 308.182 407.556 308.12Z" fill="#A16D45"/>
<path d="M421.297 306.595C421.481 305.702 421.928 304.592 422.945 304.562C423.592 304.546 424.146 305.039 424.347 305.609C424.532 306.179 424.917 306.487 424.87 307.088C424.516 312.341 423.084 315.067 419.094 316.993C419.833 313.527 420.573 310.076 421.312 306.61L421.297 306.595Z" fill="#A16D45"/>
<path d="M420.157 312.218C422.175 312.218 423.808 313.835 423.808 315.838C423.808 317.84 422.175 319.458 420.157 319.458C418.139 319.458 416.506 317.84 416.506 315.838C416.506 313.835 418.139 312.218 420.157 312.218Z" fill="#EDCE9E"/>
<path d="M424.84 307.057C424.84 307.057 414.273 310.954 407.865 311.355C404.306 311.586 396.619 310.107 397.312 307.488C397.898 305.27 399.716 304.669 399.716 304.669L424.84 307.042V307.057Z" fill="#F2901F"/>
<path d="M424.87 307.088C424.87 307.088 414.734 310.385 408.326 310.785C404.768 311.016 397.081 309.537 397.774 306.919C398.359 304.7 400.177 304.099 400.177 304.099L424.87 307.073V307.088Z" fill="#FAAA41"/>
<path d="M424.871 307.088C424.871 307.088 428.06 293.547 414.381 291.499C401.271 289.542 400.178 304.099 400.178 304.099C402.92 307.15 406.601 307.827 411.192 307.827L424.871 307.073V307.088Z" fill="#F7981F"/>
<path d="M400.178 304.115C400.178 304.115 400.671 297.522 404.999 293.794C404.799 296.49 401.641 302.205 400.409 304.346C400.332 304.269 400.255 304.192 400.178 304.115Z" fill="#F7981F"/>
<path d="M400.409 304.346C401.641 302.205 404.799 296.49 404.999 293.794C407.094 291.992 410.098 290.867 414.381 291.499C418.232 292.069 420.743 293.563 422.375 295.396C418.925 294.826 410.483 294.102 408.003 300.141C406.832 302.975 406.232 305.424 405.939 307.365C403.813 306.888 401.965 305.979 400.409 304.346Z" fill="#F9A44E"/>
<path d="M422.376 295.396C426.535 300.094 424.887 307.088 424.887 307.088L411.208 307.843C409.297 307.843 407.541 307.72 405.955 307.365C406.247 305.424 406.848 302.99 408.019 300.141C410.499 294.117 418.941 294.826 422.391 295.396H422.376Z" fill="#F7981F"/>
<path d="M418.462 298.585C418.462 299.432 419.294 300.11 420.326 300.11C421.358 300.11 422.19 299.432 422.19 298.585C422.19 297.737 421.358 297.06 420.326 297.06C419.294 297.06 418.462 297.737 418.462 298.585Z" fill="#F9A44E"/>
<path d="M396.865 427.535C396.865 427.535 400.639 432.449 398.452 435.638L371.371 435.5C371.371 435.5 373.327 432.342 381.183 430.74L396.85 427.551L396.865 427.535Z" fill="#2C2B26"/>
<path d="M430.2 454.247C430.2 454.247 433.974 459.161 431.787 462.349L404.706 462.211C404.706 462.211 406.662 459.053 414.519 457.451L430.185 454.262L430.2 454.247Z" fill="#2C2B26"/>
<path d="M379.535 349.758C379.535 349.758 377.748 348.911 376.485 347.432C375.222 345.953 374.482 343.211 372.588 342.688C370.693 342.164 373.435 347.217 373.435 347.217C373.435 347.217 371.956 347.217 370.385 345.953C369.306 345.091 368.413 343.966 367.966 343.365C367.751 343.088 367.35 343.027 367.073 343.242C366.503 343.735 365.933 344.813 367.843 346.801C367.843 346.801 366.349 344.967 365.563 344.613C365.132 344.413 363.422 345.322 364.885 347.109C364.993 347.232 365.086 347.355 365.193 347.478C366.611 349.096 368.259 350.39 368.259 350.39L365.24 348.387C364.87 348.141 364.362 348.341 364.285 348.772C364.161 349.558 364.439 350.821 366.703 352.146C370.4 354.287 371.355 354.349 375.176 355.011C378.996 355.674 380.844 356.86 380.844 356.86L379.55 349.758H379.535Z" fill="#F3D0A8"/>
<path d="M430.092 331.658L421.712 346.677C417.43 354.349 408.788 357.722 400.3 355.412L378.872 345.229L376.408 359.278L406.107 368.737C413.948 370.893 422.298 367.874 426.919 361.173C430.678 355.72 434.375 349.604 434.714 346.2C435.776 335.155 430.092 331.643 430.092 331.643V331.658Z" fill="#FDDEBF"/>
<path d="M249.861 309.121L321.168 273.075L331.181 286.23L348.634 278.975L376.871 330.487L385.944 288.248C387.3 281.902 383.233 275.601 376.886 274.246L207.437 237.876C201.091 236.52 194.79 240.587 193.435 246.933L183.406 293.64L224.059 275.478L249.846 309.137L249.861 309.121Z" fill="#8FCCE4"/>
<path d="M348.634 278.975L331.181 286.23L321.168 273.075L249.86 309.121L224.073 275.463L183.421 293.624L181.049 304.639C179.693 310.985 183.76 317.286 190.107 318.641L359.556 355.011C365.902 356.367 372.203 352.3 373.558 345.953L376.886 330.472L348.649 278.959L348.634 278.975Z" fill="#4DAEC5"/>
<path d="M274.493 282.626C272.629 291.345 264.033 296.89 255.33 295.011C246.611 293.147 241.065 284.567 242.945 275.848C244.808 267.129 253.404 261.583 262.108 263.462C270.827 265.326 276.372 273.907 274.493 282.626Z" fill="#EEC268"/>
<path d="M474.782 543.454L462.227 588.943H499.629L487.059 543.454H474.782Z" fill="#F7981F"/>
<path d="M463.275 585.123L462.227 588.943H499.629L498.582 585.123H463.275Z" fill="#E07F26"/>
<path d="M495.053 572.368H466.801L463.273 585.123H498.58L495.053 572.368Z" fill="#F7981F"/>
<path d="M487.058 543.454H474.781L471.146 556.64H490.709L487.058 543.454Z" fill="#F7981F"/>
<path d="M490.708 556.64H471.145L466.801 572.368H495.053L490.708 556.64Z" fill="#EEC268"/>
<path d="M507.361 596.353H453.215C453.215 591.331 457.297 587.249 462.319 587.249H498.258C503.279 587.249 507.361 591.331 507.361 596.353Z" fill="#F7981F"/>
<path d="M95.8005 543.454L83.2305 588.943H120.648L108.078 543.454H95.8005Z" fill="#F7981F"/>
<path d="M84.2934 585.123L83.2305 588.943H120.648L119.585 585.123H84.2934Z" fill="#E07F26"/>
<path d="M116.072 572.368H87.8206L84.293 585.123H119.585L116.072 572.368Z" fill="#F7981F"/>
<path d="M108.078 543.454H95.801L92.1655 556.64H111.714L108.078 543.454Z" fill="#F7981F"/>
<path d="M111.713 556.64H92.1644L87.8203 572.368H116.072L111.713 556.64Z" fill="#EEC268"/>
<path d="M128.381 596.353H74.2344C74.2344 591.331 78.3166 587.249 83.3384 587.249H119.277C124.299 587.249 128.381 591.331 128.381 596.353Z" fill="#F7981F"/>
</svg>
